<?xml version="1.0" standalone="yes"?>

<svg version="1.1" viewBox="0.0 0.0 960.0 720.0" fill="none" stroke="none" stroke-linecap="square" stroke-miterlimit="10" xmlns="http://www.w3.org/2000/svg" xmlns:xlink="http://www.w3.org/1999/xlink"><clipPath id="p.0"><path d="m0 0l960.0 0l0 720.0l-960.0 0l0 -720.0z" clip-rule="nonzero"></path></clipPath><g clip-path="url(#p.0)"><path fill="#ffffff" d="m0 0l960.0 0l0 720.0l-960.0 0z" fill-rule="nonzero"></path><path fill="#3d85c6" d="m42.372704 241.56168l123.11811 0l0 82.39371l-123.11811 0z" fill-rule="nonzero"></path><path stroke="#000000" stroke-width="2.0" stroke-linejoin="round" stroke-linecap="butt" d="m42.372704 241.56168l123.11811 0l0 82.39371l-123.11811 0z" fill-rule="nonzero"></path><path fill="#000000" d="m58.994408 276.86008l3.96875 0q1.34375 0 2.046875 0.203125q0.9375 0.28125 1.609375 1.0q0.671875 0.703125 1.015625 1.734375q0.359375 1.015625 0.359375 2.53125q0 1.328125 -0.328125 2.28125q-0.390625 1.171875 -1.140625 1.90625q-0.5625 0.546875 -1.53125 0.84375q-0.71875 0.234375 -1.921875 0.234375l-4.078125 0l0 -10.734375zm2.171875 1.8125l0 7.109375l1.625 0q0.90625 0 1.3125 -0.09375q0.515625 -0.140625 0.859375 -0.453125q0.359375 -0.3125 0.578125 -1.03125q0.21875 -0.71875 0.21875 -1.96875q0 -1.25 -0.21875 -1.90625q-0.21875 -0.671875 -0.625 -1.046875q-0.390625 -0.375 -1.0 -0.5q-0.453125 -0.109375 -1.78125 -0.109375l-0.96875 0zm12.912399 6.453125l2.046875 0.34375q-0.390625 1.125 -1.25 1.71875q-0.84375 0.578125 -2.125 0.578125q-2.03125 0 -3.0 -1.328125q-0.78125 -1.0625 -0.78125 -2.671875q0 -1.9375 1.015625 -3.03125q1.015625 -1.09375 2.5625 -1.09375q1.734375 0 2.734375 1.15625q1.0 1.140625 0.953125 3.5l-5.15625 0q0.03125 0.921875 0.5 1.4375q0.484375 0.5 1.1875 0.5q0.484375 0 0.8125 -0.265625q0.328125 -0.265625 0.5 -0.84375zm0.125 -2.09375q-0.03125 -0.890625 -0.46875 -1.34375q-0.4375 -0.46875 -1.0625 -0.46875q-0.671875 0 -1.125 0.484375q-0.4375 0.5 -0.421875 1.328125l3.078125 0zm5.666733 4.5625l-3.140625 -7.78125l2.15625 0l1.46875 3.96875l0.421875 1.328125q0.171875 -0.5 0.21875 -0.671875q0.109375 -0.328125 0.21875 -0.65625l1.484375 -3.96875l2.109375 0l-3.09375 7.78125l-1.84375 0zm10.510483 -2.46875l2.046875 0.34375q-0.390625 1.125 -1.25 1.71875q-0.84375 0.578125 -2.125 0.578125q-2.03125 0 -3.0 -1.328125q-0.78125 -1.0625 -0.78125 -2.671875q0 -1.9375 1.015625 -3.03125q1.015625 -1.09375 2.5625 -1.09375q1.734375 0 2.734375 1.15625q1.0 1.140625 0.953125 3.5l-5.15625 0q0.03125 0.921875 0.5 1.4375q0.484375 0.5 1.1875 0.5q0.484375 0 0.8125 -0.265625q0.328125 -0.265625 0.5 -0.84375zm0.125 -2.09375q-0.03125 -0.890625 -0.46875 -1.34375q-0.4375 -0.46875 -1.0625 -0.46875q-0.671875 0 -1.125 0.484375q-0.4375 0.5 -0.421875 1.328125l3.078125 0zm3.5261078 4.5625l0 -10.734375l2.0625 0l0 10.734375l-2.0625 0zm3.5876007 -4.0q0 -1.03125 0.5 -1.984375q0.515625 -0.953125 1.4375 -1.453125q0.9375 -0.515625 2.078125 -0.515625q1.765625 0 2.890625 1.15625q1.125 1.140625 1.125 2.890625q0 1.765625 -1.140625 2.921875q-1.140625 1.15625 -2.859375 1.15625q-1.078125 0 -2.046875 -0.484375q-0.96875 -0.484375 -1.484375 -1.40625q-0.5 -0.9375 -0.5 -2.28125zm2.109375 0.109375q0 1.15625 0.546875 1.78125q0.5625 0.609375 1.359375 0.609375q0.8125 0 1.359375 -0.609375q0.546875 -0.625 0.546875 -1.796875q0 -1.140625 -0.546875 -1.75q-0.546875 -0.625 -1.359375 -0.625q-0.796875 0 -1.359375 0.625q-0.546875 0.609375 -0.546875 1.765625zm7.2651215 -3.890625l1.921875 0l0 1.140625q0.375 -0.578125 1.0 -0.9375q0.640625 -0.375 1.421875 -0.375q1.359375 0 2.296875 1.0625q0.953125 1.0625 0.953125 2.953125q0 1.953125 -0.953125 3.03125q-0.953125 1.078125 -2.3125 1.078125q-0.640625 0 -1.171875 -0.25q-0.515625 -0.265625 -1.09375 -0.875l0 3.90625l-2.0625 0l0 -10.734375zm2.03125 3.765625q0 1.3125 0.515625 1.9375q0.53125 0.625 1.28125 0.625q0.71875 0 1.1875 -0.578125q0.484375 -0.578125 0.484375 -1.890625q0 -1.21875 -0.5 -1.8125q-0.484375 -0.59375 -1.203125 -0.59375q-0.765625 0 -1.265625 0.59375q-0.5 0.578125 -0.5 1.71875zm6.8276215 -3.765625l1.890625 0l0 1.0625q1.03125 -1.234375 2.4375 -1.234375q0.734375 0 1.28125 0.3125q0.5625 0.296875 0.90625 0.921875q0.515625 -0.625 1.109375 -0.921875q0.59375 -0.3125 1.265625 -0.3125q0.859375 0 1.453125 0.34375q0.59375 0.34375 0.890625 1.03125q0.203125 0.484375 0.203125 1.609375l0 4.96875l-2.046875 0l0 -4.453125q0 -1.15625 -0.21875 -1.484375q-0.28125 -0.4375 -0.875 -0.4375q-0.4375 0 -0.828125 0.265625q-0.375 0.25 -0.546875 0.765625q-0.15625 0.515625 -0.15625 1.609375l0 3.734375l-2.0625 0l0 -4.265625q0 -1.125 -0.109375 -1.453125q-0.109375 -0.34375 -0.34375 -0.5q-0.234375 -0.15625 -0.625 -0.15625q-0.46875 0 -0.859375 0.265625q-0.375 0.25 -0.546875 0.734375q-0.15625 0.46875 -0.15625 1.59375l0 3.78125l-2.0625 0l0 -7.78125zm17.687996 5.3125l2.046875 0.34375q-0.390625 1.125 -1.25 1.71875q-0.84375 0.578125 -2.125 0.578125q-2.03125 0 -3.0 -1.328125q-0.78125 -1.0625 -0.78125 -2.671875q0 -1.9375 1.015625 -3.03125q1.015625 -1.09375 2.5625 -1.09375q1.734375 0 2.734375 1.15625q1.0 1.140625 0.953125 3.5l-5.15625 0q0.03125 0.921875 0.5 1.4375q0.484375 0.5 1.1875 0.5q0.484375 0 0.8125 -0.265625q0.328125 -0.265625 0.5 -0.84375zm0.125 -2.09375q-0.03125 -0.890625 -0.46875 -1.34375q-0.4375 -0.46875 -1.0625 -0.46875q-0.671875 0 -1.125 0.484375q-0.4375 0.5 -0.421875 1.328125l3.078125 0zm10.604233 4.5625l-2.0625 0l0 -3.96875q0 -1.265625 -0.140625 -1.625q-0.125 -0.375 -0.421875 -0.578125q-0.296875 -0.203125 -0.71875 -0.203125q-0.53125 0 -0.953125 0.296875q-0.421875 0.28125 -0.578125 0.765625q-0.15625 0.484375 -0.15625 1.796875l0 3.515625l-2.0625 0l0 -7.78125l1.90625 0l0 1.140625q1.015625 -1.3125 2.5625 -1.3125q0.6875 0 1.25 0.25q0.5625 0.234375 0.84375 0.625q0.296875 0.375 0.40625 0.859375q0.125 0.484375 0.125 1.390625l0 4.828125zm5.4369965 -7.78125l0 1.640625l-1.40625 0l0 3.140625q0 0.953125 0.03125 1.109375q0.046875 0.15625 0.1875 0.265625q0.15625 0.09375 0.359375 0.09375q0.28125 0 0.828125 -0.203125l0.171875 1.609375q-0.71875 0.296875 -1.625 0.296875q-0.5625 0 -1.015625 -0.1875q-0.4375 -0.1875 -0.65625 -0.484375q-0.203125 -0.296875 -0.28125 -0.796875q-0.0625 -0.359375 -0.0625 -1.453125l0 -3.390625l-0.9375 0l0 -1.640625l0.9375 0l0 -1.546875l2.0625 -1.203125l0 2.75l1.40625 0z" fill-rule="nonzero"></path><path fill="#f6b26b" d="m246.49869 251.86089l0 0c0 5.688095 24.4234 10.29921 54.551178 10.29921c30.127777 0 54.551178 -4.6111145 54.551178 -10.29921l0 61.795273c0 5.6881104 -24.4234 10.299225 -54.551178 10.299225c-30.127777 0 -54.551178 -4.6111145 -54.551178 -10.299225z" fill-rule="nonzero"></path><path fill="#f9d0a6" d="m246.49869 251.86089l0 0c0 -5.688095 24.4234 -10.29921 54.551178 -10.29921c30.127777 0 54.551178 4.6111145 54.551178 10.29921l0 0c0 5.688095 -24.4234 10.29921 -54.551178 10.29921c-30.127777 0 -54.551178 -4.6111145 -54.551178 -10.29921z" fill-rule="nonzero"></path><path fill="#000000" fill-opacity="0.0" d="m355.60104 251.86089l0 0c0 5.688095 -24.4234 10.29921 -54.551178 10.29921c-30.127777 0 -54.551178 -4.6111145 -54.551178 -10.29921l0 0c0 -5.688095 24.4234 -10.29921 54.551178 -10.29921c30.127777 0 54.551178 4.6111145 54.551178 10.29921l0 61.795273c0 5.6881104 -24.4234 10.299225 -54.551178 10.299225c-30.127777 0 -54.551178 -4.6111145 -54.551178 -10.299225l0 -61.795273" fill-rule="nonzero"></path><path stroke="#000000" stroke-width="2.0" stroke-linejoin="round" stroke-linecap="butt" d="m355.60104 251.86089l0 0c0 5.688095 -24.4234 10.29921 -54.551178 10.29921c-30.127777 0 -54.551178 -4.6111145 -54.551178 -10.29921l0 0c0 -5.688095 24.4234 -10.29921 54.551178 -10.29921c30.127777 0 54.551178 4.6111145 54.551178 10.29921l0 61.795273c0 5.6881104 -24.4234 10.299225 -54.551178 10.299225c-30.127777 0 -54.551178 -4.6111145 -54.551178 -10.299225l0 -61.795273" fill-rule="nonzero"></path><path fill="#000000" d="m285.3124 289.24408l2.109375 -0.203125q0.1875 1.0625 0.765625 1.5625q0.578125 0.5 1.578125 0.5q1.046875 0 1.578125 -0.4375q0.53125 -0.453125 0.53125 -1.046875q0 -0.375 -0.234375 -0.640625q-0.21875 -0.265625 -0.78125 -0.46875q-0.375 -0.125 -1.734375 -0.46875q-1.734375 -0.4375 -2.4375 -1.0625q-0.984375 -0.890625 -0.984375 -2.15625q0 -0.828125 0.453125 -1.53125q0.46875 -0.71875 1.34375 -1.09375q0.875 -0.375 2.109375 -0.375q2.03125 0 3.046875 0.890625q1.015625 0.890625 1.078125 2.359375l-2.171875 0.09375q-0.140625 -0.828125 -0.59375 -1.1875q-0.453125 -0.359375 -1.375 -0.359375q-0.953125 0 -1.484375 0.390625q-0.34375 0.25 -0.34375 0.65625q0 0.390625 0.328125 0.65625q0.40625 0.34375 1.984375 0.71875q1.59375 0.375 2.34375 0.78125q0.765625 0.390625 1.1875 1.09375q0.421875 0.6875 0.421875 1.703125q0 0.921875 -0.515625 1.734375q-0.5 0.796875 -1.4375 1.1875q-0.9375 0.390625 -2.34375 0.390625q-2.03125 0 -3.125 -0.9375q-1.09375 -0.9375 -1.296875 -2.75zm17.19748 -0.453125l2.09375 0.671875q-0.484375 1.75 -1.609375 2.609375q-1.125 0.859375 -2.84375 0.859375q-2.140625 0 -3.53125 -1.453125q-1.375 -1.46875 -1.375 -4.015625q0 -2.671875 1.390625 -4.15625q1.390625 -1.484375 3.640625 -1.484375q1.96875 0 3.203125 1.171875q0.734375 0.6875 1.09375 1.96875l-2.140625 0.515625q-0.1875 -0.828125 -0.796875 -1.3125q-0.609375 -0.484375 -1.46875 -0.484375q-1.1875 0 -1.9375 0.859375q-0.75 0.84375 -0.75 2.765625q0 2.03125 0.734375 2.90625q0.734375 0.859375 1.90625 0.859375q0.875 0 1.484375 -0.546875q0.625 -0.546875 0.90625 -1.734375zm3.6780396 3.953125l0 -10.734375l3.25 0l1.9375 7.328125l1.9375 -7.328125l3.25 0l0 10.734375l-2.015625 0l0 -8.453125l-2.140625 8.453125l-2.078125 0l-2.125 -8.453125l0 8.453125l-2.015625 0z" fill-rule="nonzero"></path><path fill="#000000" fill-opacity="0.0" d="m726.4724 52.43307l-492.94482 0l0 59.370083l492.94482 0z" fill-rule="nonzero"></path><path fill="#000000" d="m322.8125 69.01119l10.5625 0q3.578125 0 5.453125 0.546875q2.515625 0.75 4.3125 2.640625q1.796875 1.890625 2.734375 4.640625q0.9375 2.75 0.9375 6.765625q0 3.53125 -0.875 6.09375q-1.078125 3.125 -3.0625 5.0625q-1.5 1.46875 -4.0625 2.28125q-1.921875 0.609375 -5.125 0.609375l-10.875 0l0 -28.640625zm5.78125 4.84375l0 18.96875l4.3125 0q2.421875 0 3.5 -0.265625q1.40625 -0.359375 2.328125 -1.1875q0.9375 -0.84375 1.515625 -2.765625q0.59375 -1.9375 0.59375 -5.25q0 -3.328125 -0.59375 -5.09375q-0.578125 -1.78125 -1.640625 -2.78125q-1.046875 -1.0 -2.671875 -1.34375q-1.203125 -0.28125 -4.75 -0.28125l-2.59375 0zm35.10547 17.1875l5.46875 0.921875q-1.0625 3.015625 -3.34375 4.59375q-2.265625 1.5625 -5.6875 1.5625q-5.40625 0 -8.0 -3.53125q-2.0625 -2.84375 -2.0625 -7.15625q0 -5.15625 2.6875 -8.078125q2.703125 -2.921875 6.828125 -2.921875q4.625 0 7.296875 3.0625q2.6875 3.0625 2.5625 9.359375l-13.75 0q0.0625 2.453125 1.328125 3.8125q1.28125 1.34375 3.171875 1.34375q1.28125 0 2.15625 -0.703125q0.890625 -0.703125 1.34375 -2.265625zm0.3125 -5.546875q-0.0625 -2.375 -1.234375 -3.609375q-1.171875 -1.25 -2.859375 -1.25q-1.796875 0 -2.96875 1.3125q-1.171875 1.3125 -1.140625 3.546875l8.203125 0zm9.917969 12.15625l0 -28.640625l5.484375 0l0 28.640625l-5.484375 0zm11.113281 -23.5625l0 -5.078125l5.484375 0l0 5.078125l-5.484375 0zm0 23.5625l0 -20.75l5.484375 0l0 20.75l-5.484375 0zm16.816406 0l-8.359375 -20.75l5.765625 0l3.90625 10.59375l1.125 3.53125q0.453125 -1.34375 0.5625 -1.78125q0.28125 -0.875 0.59375 -1.75l3.9375 -10.59375l5.65625 0l-8.25 20.75l-4.9375 0zm28.558594 -6.609375l5.46875 0.921875q-1.0625 3.015625 -3.34375 4.59375q-2.265625 1.5625 -5.6875 1.5625q-5.40625 0 -8.0 -3.53125q-2.0625 -2.84375 -2.0625 -7.15625q0 -5.15625 2.6875 -8.078125q2.703125 -2.921875 6.828125 -2.921875q4.625 0 7.296875 3.0625q2.6875 3.0625 2.5625 9.359375l-13.75 0q0.0625 2.453125 1.328125 3.8125q1.28125 1.34375 3.171875 1.34375q1.28125 0 2.15625 -0.703125q0.890625 -0.703125 1.34375 -2.265625zm0.3125 -5.546875q-0.0625 -2.375 -1.234375 -3.609375q-1.171875 -1.25 -2.859375 -1.25q-1.796875 0 -2.96875 1.3125q-1.171875 1.3125 -1.140625 3.546875l8.203125 0zm15.167969 12.15625l-5.484375 0l0 -20.75l5.09375 0l0 2.953125q1.3125 -2.09375 2.359375 -2.75q1.046875 -0.671875 2.375 -0.671875q1.875 0 3.609375 1.046875l-1.703125 4.78125q-1.390625 -0.90625 -2.578125 -0.90625q-1.15625 0 -1.953125 0.640625q-0.796875 0.640625 -1.265625 2.296875q-0.453125 1.65625 -0.453125 6.953125l0 6.40625zm7.7226562 -20.75l5.828125 0l4.96875 14.734375l4.84375 -14.734375l5.6875 0l-7.328125 19.96875l-1.3125 3.609375q-0.71875 1.828125 -1.375 2.78125q-0.65625 0.953125 -1.515625 1.546875q-0.84375 0.59375 -2.078125 0.921875q-1.234375 0.34375 -2.796875 0.34375q-1.59375 0 -3.109375 -0.328125l-0.484375 -4.296875q1.28125 0.25 2.3125 0.25q1.921875 0 2.828125 -1.125q0.921875 -1.125 1.421875 -2.859375l-7.890625 -20.8125zm35.984375 20.75l0 -28.640625l9.28125 0q5.28125 0 6.875 0.4375q2.46875 0.640625 4.125 2.796875q1.65625 2.15625 1.65625 5.578125q0 2.640625 -0.953125 4.4375q-0.953125 1.796875 -2.4375 2.828125q-1.46875 1.015625 -3.0 1.34375q-2.0625 0.421875 -5.984375 0.421875l-3.78125 0l0 10.796875l-5.78125 0zm5.78125 -23.796875l0 8.125l3.171875 0q3.421875 0 4.5625 -0.4375q1.15625 -0.453125 1.8125 -1.40625q0.65625 -0.96875 0.65625 -2.234375q0 -1.5625 -0.921875 -2.578125q-0.921875 -1.015625 -2.328125 -1.265625q-1.03125 -0.203125 -4.15625 -0.203125l-2.796875 0zm20.867188 0.234375l0 -5.078125l5.484375 0l0 5.078125l-5.484375 0zm0 23.5625l0 -20.75l5.484375 0l0 20.75l-5.484375 0zm10.957031 -20.75l5.109375 0l0 3.046875q1.0 -1.5625 2.703125 -2.53125q1.703125 -0.984375 3.765625 -0.984375q3.609375 0 6.125 2.84375q2.53125 2.828125 2.53125 7.890625q0 5.1875 -2.546875 8.078125q-2.53125 2.875 -6.140625 2.875q-1.71875 0 -3.125 -0.6875q-1.390625 -0.6875 -2.9375 -2.34375l0 10.453125l-5.484375 0l0 -28.640625zm5.421875 10.03125q0 3.484375 1.390625 5.15625q1.390625 1.671875 3.375 1.671875q1.921875 0 3.1875 -1.53125q1.265625 -1.53125 1.265625 -5.03125q0 -3.265625 -1.3125 -4.84375q-1.296875 -1.578125 -3.234375 -1.578125q-2.015625 0 -3.34375 1.5625q-1.328125 1.546875 -1.328125 4.59375zm31.183594 4.109375l5.46875 0.921875q-1.0625 3.015625 -3.34375 4.59375q-2.265625 1.5625 -5.6875 1.5625q-5.40625 0 -8.0 -3.53125q-2.0625 -2.84375 -2.0625 -7.15625q0 -5.15625 2.6875 -8.078125q2.703125 -2.921875 6.828125 -2.921875q4.625 0 7.296875 3.0625q2.6875 3.0625 2.5625 9.359375l-13.75 0q0.0625 2.453125 1.328125 3.8125q1.28125 1.34375 3.171875 1.34375q1.28125 0 2.15625 -0.703125q0.890625 -0.703125 1.34375 -2.265625zm0.3125 -5.546875q-0.0625 -2.375 -1.234375 -3.609375q-1.171875 -1.25 -2.859375 -1.25q-1.796875 0 -2.96875 1.3125q-1.171875 1.3125 -1.140625 3.546875l8.203125 0zm9.917969 12.15625l0 -28.640625l5.484375 0l0 28.640625l-5.484375 0zm11.113281 -23.5625l0 -5.078125l5.484375 0l0 5.078125l-5.484375 0zm0 23.5625l0 -20.75l5.484375 0l0 20.75l-5.484375 0zm29.972656 0l-5.484375 0l0 -10.59375q0 -3.359375 -0.359375 -4.34375q-0.34375 -0.984375 -1.140625 -1.53125q-0.78125 -0.546875 -1.890625 -0.546875q-1.4375 0 -2.578125 0.78125q-1.125 0.78125 -1.546875 2.078125q-0.40625 1.28125 -0.40625 4.765625l0 9.390625l-5.5 0l0 -20.75l5.109375 0l0 3.046875q2.703125 -3.515625 6.828125 -3.515625q1.8125 0 3.3125 0.65625q1.515625 0.65625 2.28125 1.671875q0.78125 1.015625 1.078125 2.3125q0.296875 1.28125 0.296875 3.6875l0 12.890625zm17.589844 -6.609375l5.46875 0.921875q-1.0625 3.015625 -3.34375 4.59375q-2.265625 1.5625 -5.6875 1.5625q-5.40625 0 -8.0 -3.53125q-2.0625 -2.84375 -2.0625 -7.15625q0 -5.15625 2.6875 -8.078125q2.703125 -2.921875 6.828125 -2.921875q4.625 0 7.296875 3.0625q2.6875 3.0625 2.5625 9.359375l-13.75 0q0.0625 2.453125 1.328125 3.8125q1.28125 1.34375 3.171875 1.34375q1.28125 0 2.15625 -0.703125q0.890625 -0.703125 1.34375 -2.265625zm0.3125 -5.546875q-0.0625 -2.375 -1.234375 -3.609375q-1.171875 -1.25 -2.859375 -1.25q-1.796875 0 -2.96875 1.3125q-1.171875 1.3125 -1.140625 3.546875l8.203125 0z" fill-rule="nonzero"></path><path fill="#fff2cc" d="m172.97113 276.7034l53.93701 0l0 -6.0551147l12.1102295 12.11026l-12.1102295 12.1102295l0 -6.0551147l-53.93701 0z" fill-rule="nonzero"></path><path stroke="#000000" stroke-width="2.0" stroke-linejoin="round" stroke-linecap="butt" d="m172.97113 276.7034l53.93701 0l0 -6.0551147l12.1102295 12.11026l-12.1102295 12.1102295l0 -6.0551147l-53.93701 0z" fill-rule="nonzero"></path><path fill="#93c47d" d="m436.15216 241.87927l123.1181 0l0 82.39368l-123.1181 0z" fill-rule="nonzero"></path><path stroke="#000000" stroke-width="2.0" stroke-linejoin="round" stroke-linecap="butt" d="m436.15216 241.87927l123.1181 0l0 82.39368l-123.1181 0z" fill-rule="nonzero"></path><path fill="#000000" d="m498.35184 275.52924l2.09375 0.671875q-0.484375 1.75 -1.609375 2.609375q-1.125 0.859375 -2.84375 0.859375q-2.140625 0 -3.53125 -1.453125q-1.375 -1.46875 -1.375 -4.015625q0 -2.671875 1.390625 -4.15625q1.390625 -1.484375 3.640625 -1.484375q1.96875 0 3.203125 1.171875q0.734375 0.6875 1.09375 1.96875l-2.140625 0.515625q-0.1875 -0.828125 -0.796875 -1.3125q-0.609375 -0.484375 -1.46875 -0.484375q-1.1875 0 -1.9375 0.859375q-0.75 0.84375 -0.75 2.765625q0 2.03125 0.734375 2.90625q0.734375 0.859375 1.90625 0.859375q0.875 0 1.484375 -0.546875q0.625 -0.546875 0.90625 -1.734375zm3.646759 3.953125l0 -10.734375l2.15625 0l0 10.734375l-2.15625 0z" fill-rule="nonzero"></path><path fill="#000000" d="m480.48822 285.60736l4.296875 0q1.28125 0 1.90625 0.109375q0.625 0.09375 1.109375 0.4375q0.5 0.34375 0.828125 0.90625q0.328125 0.546875 0.328125 1.25q0 0.75 -0.40625 1.390625q-0.40625 0.625 -1.09375 0.9375q0.96875 0.28125 1.5 0.96875q0.53125 0.6875 0.53125 1.625q0 0.734375 -0.34375 1.421875q-0.34375 0.6875 -0.9375 1.109375q-0.578125 0.40625 -1.4375 0.5q-0.546875 0.0625 -2.625 0.078125l-3.65625 0l0 -10.734375zm2.171875 1.78125l0 2.484375l1.421875 0q1.265625 0 1.578125 -0.03125q0.546875 -0.0625 0.859375 -0.375q0.328125 -0.328125 0.328125 -0.859375q0 -0.484375 -0.28125 -0.796875q-0.265625 -0.3125 -0.8125 -0.375q-0.3125 -0.046875 -1.84375 -0.046875l-1.25 0zm0 4.265625l0 2.875l2.015625 0q1.171875 0 1.484375 -0.0625q0.484375 -0.09375 0.78125 -0.421875q0.3125 -0.34375 0.3125 -0.921875q0 -0.484375 -0.234375 -0.8125q-0.234375 -0.34375 -0.6875 -0.5q-0.4375 -0.15625 -1.921875 -0.15625l-1.75 0zm13.521759 4.6875l0 -1.171875q-0.4375 0.625 -1.125 0.984375q-0.6875 0.359375 -1.453125 0.359375q-0.796875 0 -1.421875 -0.34375q-0.609375 -0.34375 -0.890625 -0.96875q-0.28125 -0.625 -0.28125 -1.71875l0 -4.921875l2.0625 0l0 3.578125q0 1.640625 0.109375 2.015625q0.109375 0.359375 0.40625 0.578125q0.3125 0.21875 0.765625 0.21875q0.53125 0 0.953125 -0.28125q0.421875 -0.296875 0.5625 -0.71875q0.15625 -0.4375 0.15625 -2.109375l0 -3.28125l2.0625 0l0 7.78125l-1.90625 0zm3.8276367 -8.828125l0 -1.90625l2.0625 0l0 1.90625l-2.0625 0zm0 8.828125l0 -7.78125l2.0625 0l0 7.78125l-2.0625 0zm4.0719604 0l0 -10.734375l2.0625 0l0 10.734375l-2.0625 0zm11.196991 0l-1.90625 0l0 -1.140625q-0.46875 0.671875 -1.125 1.0q-0.640625 0.3125 -1.296875 0.3125q-1.34375 0 -2.3125 -1.078125q-0.953125 -1.078125 -0.953125 -3.015625q0 -1.96875 0.921875 -3.0q0.9375 -1.03125 2.359375 -1.03125q1.3125 0 2.265625 1.078125l0 -3.859375l2.046875 0l0 10.734375zm-5.484375 -4.0625q0 1.25 0.34375 1.8125q0.5 0.796875 1.390625 0.796875q0.703125 0 1.203125 -0.59375q0.5 -0.609375 0.5 -1.8125q0 -1.34375 -0.484375 -1.921875q-0.484375 -0.59375 -1.234375 -0.59375q-0.734375 0 -1.234375 0.578125q-0.484375 0.578125 -0.484375 1.734375z" fill-rule="nonzero"></path><path fill="#93c47d" d="m639.8214 241.87927l123.118164 0l0 82.39368l-123.118164 0z" fill-rule="nonzero"></path><path stroke="#000000" stroke-width="2.0" stroke-linejoin="round" stroke-linecap="butt" d="m639.8214 241.87927l123.118164 0l0 82.39368l-123.118164 0z" fill-rule="nonzero"></path><path fill="#000000" d="m702.0211 275.52924l2.09375 0.671875q-0.484375 1.75 -1.609375 2.609375q-1.125 0.859375 -2.84375 0.859375q-2.140625 0 -3.53125 -1.453125q-1.375 -1.46875 -1.375 -4.015625q0 -2.671875 1.390625 -4.15625q1.390625 -1.484375 3.640625 -1.484375q1.96875 0 3.203125 1.171875q0.734375 0.6875 1.09375 1.96875l-2.140625 0.515625q-0.1875 -0.828125 -0.796875 -1.3125q-0.609375 -0.484375 -1.46875 -0.484375q-1.1875 0 -1.9375 0.859375q-0.75 0.84375 -0.75 2.765625q0 2.03125 0.734375 2.90625q0.734375 0.859375 1.90625 0.859375q0.875 0 1.484375 -0.546875q0.625 -0.546875 0.90625 -1.734375zm3.6467896 3.953125l0 -10.734375l2.15625 0l0 10.734375l-2.15625 0z" fill-rule="nonzero"></path><path fill="#000000" d="m671.1101 285.60736l2.171875 0l0 5.8125q0 1.390625 0.078125 1.796875q0.140625 0.65625 0.65625 1.0625q0.53125 0.390625 1.4375 0.390625q0.921875 0 1.390625 -0.375q0.46875 -0.375 0.5625 -0.921875q0.09375 -0.546875 0.09375 -1.828125l0 -5.9375l2.171875 0l0 5.640625q0 1.921875 -0.1875 2.734375q-0.171875 0.796875 -0.640625 1.34375q-0.46875 0.546875 -1.265625 0.875q-0.78125 0.328125 -2.0625 0.328125q-1.53125 0 -2.328125 -0.359375q-0.796875 -0.359375 -1.265625 -0.921875q-0.453125 -0.5625 -0.59375 -1.1875q-0.21875 -0.921875 -0.21875 -2.734375l0 -5.71875zm17.662415 10.734375l-2.0625 0l0 -3.96875q0 -1.265625 -0.140625 -1.625q-0.125 -0.375 -0.421875 -0.578125q-0.296875 -0.203125 -0.71875 -0.203125q-0.53125 0 -0.953125 0.296875q-0.421875 0.28125 -0.578125 0.765625q-0.15625 0.484375 -0.15625 1.796875l0 3.515625l-2.0625 0l0 -7.78125l1.90625 0l0 1.140625q1.015625 -1.3125 2.5625 -1.3125q0.6875 0 1.25 0.25q0.5625 0.234375 0.84375 0.625q0.296875 0.375 0.40625 0.859375q0.125 0.484375 0.125 1.390625l0 4.828125zm1.8745117 -8.828125l0 -1.90625l2.0625 0l0 1.90625l-2.0625 0zm0 8.828125l0 -7.78125l2.0625 0l0 7.78125l-2.0625 0zm7.6344604 -7.78125l0 1.640625l-1.40625 0l0 3.140625q0 0.953125 0.03125 1.109375q0.046875 0.15625 0.1875 0.265625q0.15625 0.09375 0.359375 0.09375q0.28125 0 0.828125 -0.203125l0.171875 1.609375q-0.71875 0.296875 -1.625 0.296875q-0.5625 0 -1.015625 -0.1875q-0.4375 -0.1875 -0.65625 -0.484375q-0.203125 -0.296875 -0.28125 -0.796875q-0.0625 -0.359375 -0.0625 -1.453125l0 -3.390625l-0.9375 0l0 -1.640625l0.9375 0l0 -1.546875l2.0625 -1.203125l0 2.75l1.40625 0zm7.8276367 7.78125l0 -8.921875l-3.1875 0l0 -1.8125l8.53125 0l0 1.8125l-3.1875 0l0 8.921875l-2.15625 0zm11.015137 -2.46875l2.046875 0.34375q-0.390625 1.125 -1.25 1.71875q-0.84375 0.578125 -2.125 0.578125q-2.03125 0 -3.0 -1.328125q-0.78125 -1.0625 -0.78125 -2.671875q0 -1.9375 1.015625 -3.03125q1.015625 -1.09375 2.5625 -1.09375q1.734375 0 2.734375 1.15625q1.0 1.140625 0.953125 3.5l-5.15625 0q0.03125 0.921875 0.5 1.4375q0.484375 0.5 1.1875 0.5q0.484375 0 0.8125 -0.265625q0.328125 -0.265625 0.5 -0.84375zm0.125 -2.09375q-0.03125 -0.890625 -0.46875 -1.34375q-0.4375 -0.46875 -1.0625 -0.46875q-0.671875 0 -1.125 0.484375q-0.4375 0.5 -0.421875 1.328125l3.078125 0zm2.807312 2.34375l2.0625 -0.3125q0.125 0.59375 0.53125 0.90625q0.40625 0.3125 1.125 0.3125q0.796875 0 1.203125 -0.296875q0.265625 -0.203125 0.265625 -0.546875q0 -0.234375 -0.140625 -0.390625q-0.15625 -0.140625 -0.6875 -0.265625q-2.484375 -0.546875 -3.15625 -1.0q-0.921875 -0.640625 -0.921875 -1.75q0 -1.015625 0.796875 -1.703125q0.796875 -0.6875 2.46875 -0.6875q1.609375 0 2.375 0.515625q0.78125 0.515625 1.078125 1.546875l-1.953125 0.359375q-0.125 -0.453125 -0.46875 -0.6875q-0.34375 -0.25 -0.984375 -0.25q-0.8125 0 -1.171875 0.21875q-0.234375 0.15625 -0.234375 0.421875q0 0.21875 0.203125 0.375q0.28125 0.203125 1.921875 0.578125q1.65625 0.375 2.296875 0.90625q0.65625 0.5625 0.65625 1.53125q0 1.078125 -0.90625 1.84375q-0.890625 0.765625 -2.640625 0.765625q-1.59375 0 -2.515625 -0.640625q-0.921875 -0.640625 -1.203125 -1.75zm12.432373 -5.5625l0 1.640625l-1.40625 0l0 3.140625q0 0.953125 0.03125 1.109375q0.046875 0.15625 0.1875 0.265625q0.15625 0.09375 0.359375 0.09375q0.28125 0 0.828125 -0.203125l0.171875 1.609375q-0.71875 0.296875 -1.625 0.296875q-0.5625 0 -1.015625 -0.1875q-0.4375 -0.1875 -0.65625 -0.484375q-0.203125 -0.296875 -0.28125 -0.796875q-0.0625 -0.359375 -0.0625 -1.453125l0 -3.390625l-0.9375 0l0 -1.640625l0.9375 0l0 -1.546875l2.0625 -1.203125l0 2.75l1.40625 0z" fill-rule="nonzero"></path><path fill="#93c47d" d="m175.49338 442.39108l123.1181 0l0 82.39371l-123.1181 0z" fill-rule="nonzero"></path><path stroke="#000000" stroke-width="2.0" stroke-linejoin="round" stroke-linecap="butt" d="m175.49338 442.39108l123.1181 0l0 82.39371l-123.1181 0z" fill-rule="nonzero"></path><path fill="#000000" d="m237.69305 467.61136l2.09375 0.671875q-0.484375 1.75 -1.609375 2.609375q-1.125 0.859375 -2.84375 0.859375q-2.140625 0 -3.53125 -1.453125q-1.375 -1.46875 -1.375 -4.015625q0 -2.671875 1.390625 -4.15625q1.390625 -1.484375 3.640625 -1.484375q1.96875 0 3.203125 1.171875q0.734375 0.6875 1.09375 1.96875l-2.140625 0.515625q-0.1875 -0.828125 -0.796875 -1.3125q-0.609375 -0.484375 -1.46875 -0.484375q-1.1875 0 -1.9375 0.859375q-0.75 0.84375 -0.75 2.765625q0 2.03125 0.734375 2.90625q0.734375 0.859375 1.90625 0.859375q0.875 0 1.484375 -0.546875q0.625 -0.546875 0.90625 -1.734375zm3.6467743 3.953125l0 -10.734375l2.15625 0l0 10.734375l-2.15625 0z" fill-rule="nonzero"></path><path fill="#000000" d="m200.22289 488.42386l0 -10.734375l2.15625 0l0 10.734375l-2.15625 0zm11.196976 0l-2.0625 0l0 -3.96875q0 -1.265625 -0.140625 -1.625q-0.125 -0.375 -0.421875 -0.578125q-0.296875 -0.203125 -0.71875 -0.203125q-0.53125 0 -0.953125 0.296875q-0.421875 0.28125 -0.578125 0.765625q-0.15625 0.484375 -0.15625 1.796875l0 3.515625l-2.0625 0l0 -7.78125l1.90625 0l0 1.140625q1.015625 -1.3125 2.5625 -1.3125q0.6875 0 1.25 0.25q0.5625 0.234375 0.84375 0.625q0.296875 0.375 0.40625 0.859375q0.125 0.484375 0.125 1.390625l0 4.828125zm5.4369965 -7.78125l0 1.640625l-1.40625 0l0 3.140625q0 0.953125 0.03125 1.109375q0.046875 0.15625 0.1875 0.265625q0.15625 0.09375 0.359375 0.09375q0.28125 0 0.828125 -0.203125l0.171875 1.609375q-0.71875 0.296875 -1.625 0.296875q-0.5625 0 -1.015625 -0.1875q-0.4375 -0.1875 -0.65625 -0.484375q-0.203125 -0.296875 -0.28125 -0.796875q-0.0625 -0.359375 -0.0625 -1.453125l0 -3.390625l-0.9375 0l0 -1.640625l0.9375 0l0 -1.546875l2.0625 -1.203125l0 2.75l1.40625 0zm5.8181458 5.3125l2.046875 0.34375q-0.390625 1.125 -1.25 1.71875q-0.84375 0.578125 -2.125 0.578125q-2.03125 0 -3.0 -1.328125q-0.78125 -1.0625 -0.78125 -2.671875q0 -1.9375 1.015625 -3.03125q1.015625 -1.09375 2.5625 -1.09375q1.734375 0 2.734375 1.15625q1.0 1.140625 0.953125 3.5l-5.15625 0q0.03125 0.921875 0.5 1.4375q0.484375 0.5 1.1875 0.5q0.484375 0 0.8125 -0.265625q0.328125 -0.265625 0.5 -0.84375zm0.125 -2.09375q-0.03125 -0.890625 -0.46875 -1.34375q-0.4375 -0.46875 -1.0625 -0.46875q-0.671875 0 -1.125 0.484375q-0.4375 0.5 -0.421875 1.328125l3.078125 0zm3.3386078 5.078125l2.34375 0.28125q0.0625 0.40625 0.28125 0.5625q0.28125 0.21875 0.921875 0.21875q0.796875 0 1.203125 -0.234375q0.265625 -0.171875 0.40625 -0.515625q0.09375 -0.265625 0.09375 -0.953125l0 -1.140625q-0.921875 1.265625 -2.328125 1.265625q-1.5625 0 -2.484375 -1.328125q-0.71875 -1.046875 -0.71875 -2.609375q0 -1.953125 0.9375 -2.984375q0.953125 -1.03125 2.34375 -1.03125q1.453125 0 2.390625 1.265625l0 -1.09375l1.921875 0l0 6.984375q0 1.375 -0.234375 2.046875q-0.21875 0.6875 -0.640625 1.078125q-0.40625 0.390625 -1.09375 0.609375q-0.671875 0.21875 -1.71875 0.21875q-1.984375 0 -2.8125 -0.6875q-0.828125 -0.671875 -0.828125 -1.703125q0 -0.109375 0.015625 -0.25zm1.828125 -4.5625q0 1.234375 0.484375 1.8125q0.484375 0.578125 1.1875 0.578125q0.75 0 1.265625 -0.59375q0.53125 -0.59375 0.53125 -1.75q0 -1.203125 -0.5 -1.78125q-0.5 -0.59375 -1.265625 -0.59375q-0.734375 0 -1.21875 0.578125q-0.484375 0.5625 -0.484375 1.75zm9.280746 4.046875l-2.0625 0l0 -7.78125l1.921875 0l0 1.109375q0.484375 -0.78125 0.875 -1.03125q0.390625 -0.25 0.890625 -0.25q0.703125 0 1.359375 0.390625l-0.640625 1.796875q-0.515625 -0.34375 -0.96875 -0.34375q-0.4375 0 -0.734375 0.25q-0.296875 0.234375 -0.46875 0.859375q-0.171875 0.609375 -0.171875 2.59375l0 2.40625zm5.2661285 -5.40625l-1.859375 -0.34375q0.3125 -1.125 1.078125 -1.65625q0.765625 -0.546875 2.28125 -0.546875q1.390625 0 2.0625 0.328125q0.671875 0.328125 0.9375 0.828125q0.28125 0.5 0.28125 1.84375l-0.015625 2.390625q0 1.03125 0.09375 1.515625q0.09375 0.484375 0.375 1.046875l-2.046875 0q-0.078125 -0.203125 -0.1875 -0.609375q-0.0625 -0.1875 -0.078125 -0.234375q-0.53125 0.5 -1.140625 0.765625q-0.59375 0.25 -1.265625 0.25q-1.203125 0 -1.90625 -0.640625q-0.6875 -0.65625 -0.6875 -1.65625q0 -0.65625 0.3125 -1.171875q0.328125 -0.515625 0.890625 -0.78125q0.5625 -0.28125 1.640625 -0.5q1.4375 -0.265625 2.0 -0.5l0 -0.203125q0 -0.59375 -0.296875 -0.84375q-0.296875 -0.25 -1.109375 -0.25q-0.546875 0 -0.859375 0.21875q-0.296875 0.203125 -0.5 0.75zm2.765625 1.671875q-0.40625 0.125 -1.265625 0.3125q-0.84375 0.1875 -1.109375 0.359375q-0.40625 0.28125 -0.40625 0.71875q0 0.4375 0.3125 0.75q0.328125 0.3125 0.828125 0.3125q0.5625 0 1.0625 -0.359375q0.375 -0.28125 0.484375 -0.6875q0.09375 -0.25 0.09375 -1.0l0 -0.40625zm7.416733 -4.046875l0 1.640625l-1.40625 0l0 3.140625q0 0.953125 0.03125 1.109375q0.046875 0.15625 0.1875 0.265625q0.15625 0.09375 0.359375 0.09375q0.28125 0 0.828125 -0.203125l0.171875 1.609375q-0.71875 0.296875 -1.625 0.296875q-0.5625 0 -1.015625 -0.1875q-0.4375 -0.1875 -0.65625 -0.484375q-0.203125 -0.296875 -0.28125 -0.796875q-0.0625 -0.359375 -0.0625 -1.453125l0 -3.390625l-0.9375 0l0 -1.640625l0.9375 0l0 -1.546875l2.0625 -1.203125l0 2.75l1.40625 0zm1.3181458 -1.046875l0 -1.90625l2.0625153 0l0 1.90625l-2.0625153 0zm0 8.828125l0 -7.78125l2.0625153 0l0 7.78125l-2.0625153 0zm3.5876007 -4.0q0 -1.03125 0.5 -1.984375q0.515625 -0.953125 1.4375 -1.453125q0.9375 -0.515625 2.078125 -0.515625q1.765625 0 2.890625 1.15625q1.125 1.140625 1.125 2.890625q0 1.765625 -1.140625 2.921875q-1.140625 1.15625 -2.859375 1.15625q-1.078125 0 -2.046875 -0.484375q-0.96875 -0.484375 -1.484375 -1.40625q-0.5 -0.9375 -0.5 -2.28125zm2.109375 0.109375q0 1.15625 0.546875 1.78125q0.5625 0.609375 1.359375 0.609375q0.8125 0 1.359375 -0.609375q0.546875 -0.625 0.546875 -1.796875q0 -1.140625 -0.546875 -1.75q-0.546875 -0.625 -1.359375 -0.625q-0.796875 0 -1.359375 0.625q-0.546875 0.609375 -0.546875 1.765625zm14.405762 3.890625l-2.0625 0l0 -3.96875q0 -1.265625 -0.140625 -1.625q-0.125 -0.375 -0.421875 -0.578125q-0.296875 -0.203125 -0.71875 -0.203125q-0.53125 0 -0.953125 0.296875q-0.421875 0.28125 -0.578125 0.765625q-0.15625 0.484375 -0.15625 1.796875l0 3.515625l-2.0625 0l0 -7.78125l1.90625 0l0 1.140625q1.015625 -1.3125 2.5625 -1.3125q0.6875 0 1.25 0.25q0.5625 0.234375 0.84375 0.625q0.296875 0.375 0.40625 0.859375q0.125 0.484375 0.125 1.390625l0 4.828125z" fill-rule="nonzero"></path><path fill="#000000" d="m225.5003 505.28323l0 -8.921875l-3.1875 0l0 -1.8125l8.53125 0l0 1.8125l-3.1875 0l0 8.921875l-2.15625 0zm11.015121 -2.46875l2.046875 0.34375q-0.390625 1.125 -1.25 1.71875q-0.84375 0.578125 -2.125 0.578125q-2.03125 0 -3.0 -1.328125q-0.78125 -1.0625 -0.78125 -2.671875q0 -1.9375 1.015625 -3.03125q1.015625 -1.09375 2.5625 -1.09375q1.734375 0 2.734375 1.15625q1.0 1.140625 0.953125 3.5l-5.15625 0q0.03125 0.921875 0.5 1.4375q0.484375 0.5 1.1875 0.5q0.484375 0 0.8125 -0.265625q0.328125 -0.265625 0.5 -0.84375zm0.125 -2.09375q-0.03125 -0.890625 -0.46875 -1.34375q-0.4375 -0.46875 -1.0625 -0.46875q-0.671875 0 -1.125 0.484375q-0.4375 0.5 -0.421875 1.328125l3.078125 0zm2.8073578 2.34375l2.0625 -0.3125q0.125 0.59375 0.53125 0.90625q0.40625 0.3125 1.125 0.3125q0.796875 0 1.203125 -0.296875q0.265625 -0.203125 0.265625 -0.546875q0 -0.234375 -0.140625 -0.390625q-0.15625 -0.140625 -0.6875 -0.265625q-2.484375 -0.546875 -3.15625 -1.0q-0.921875 -0.640625 -0.921875 -1.75q0 -1.015625 0.796875 -1.703125q0.796875 -0.6875 2.46875 -0.6875q1.609375 0 2.375 0.515625q0.78125 0.515625 1.078125 1.546875l-1.953125 0.359375q-0.125 -0.453125 -0.46875 -0.6875q-0.34375 -0.25 -0.984375 -0.25q-0.8125 0 -1.171875 0.21875q-0.234375 0.15625 -0.234375 0.421875q0 0.21875 0.203125 0.375q0.28125 0.203125 1.921875 0.578125q1.65625 0.375 2.296875 0.90625q0.65625 0.5625 0.65625 1.53125q0 1.078125 -0.90625 1.84375q-0.890625 0.765625 -2.640625 0.765625q-1.59375 0 -2.515625 -0.640625q-0.921875 -0.640625 -1.203125 -1.75zm12.432358 -5.5625l0 1.640625l-1.40625 0l0 3.140625q0 0.953125 0.03125 1.109375q0.046875 0.15625 0.1875 0.265625q0.15625 0.09375 0.359375 0.09375q0.28125 0 0.828125 -0.203125l0.171875 1.609375q-0.71875 0.296875 -1.625 0.296875q-0.5625 0 -1.015625 -0.1875q-0.4375 -0.1875 -0.65625 -0.484375q-0.203125 -0.296875 -0.28125 -0.796875q-0.0625 -0.359375 -0.0625 -1.453125l0 -3.390625l-0.9375 0l0 -1.640625l0.9375 0l0 -1.546875l2.0625 -1.203125l0 2.75l1.40625 0z" fill-rule="nonzero"></path><path fill="#e06666" d="m566.91595 443.11285l123.1181 0l0 82.39368l-123.1181 0z" fill-rule="nonzero"></path><path stroke="#000000" stroke-width="2.0" stroke-linejoin="round" stroke-linecap="butt" d="m566.91595 443.11285l123.1181 0l0 82.39368l-123.1181 0z" fill-rule="nonzero"></path><path fill="#000000" d="m616.92285 489.14566l0 -8.921875l-3.1875 0l0 -1.8125l8.53125 0l0 1.8125l-3.1875 0l0 8.921875l-2.15625 0zm11.015137 -2.46875l2.046875 0.34375q-0.390625 1.125 -1.25 1.71875q-0.84375 0.578125 -2.125 0.578125q-2.03125 0 -3.0 -1.328125q-0.78125 -1.0625 -0.78125 -2.671875q0 -1.9375 1.015625 -3.03125q1.015625 -1.09375 2.5625 -1.09375q1.734375 0 2.734375 1.15625q1.0 1.140625 0.953125 3.5l-5.15625 0q0.03125 0.921875 0.5 1.4375q0.484375 0.5 1.1875 0.5q0.484375 0 0.8125 -0.265625q0.328125 -0.265625 0.5 -0.84375zm0.125 -2.09375q-0.03125 -0.890625 -0.46875 -1.34375q-0.4375 -0.46875 -1.0625 -0.46875q-0.671875 0 -1.125 0.484375q-0.4375 0.5 -0.421875 1.328125l3.078125 0zm2.807373 2.34375l2.0625 -0.3125q0.125 0.59375 0.53125 0.90625q0.40625 0.3125 1.125 0.3125q0.796875 0 1.203125 -0.296875q0.265625 -0.203125 0.265625 -0.546875q0 -0.234375 -0.140625 -0.390625q-0.15625 -0.140625 -0.6875 -0.265625q-2.484375 -0.546875 -3.15625 -1.0q-0.921875 -0.640625 -0.921875 -1.75q0 -1.015625 0.796875 -1.703125q0.796875 -0.6875 2.46875 -0.6875q1.609375 0 2.375 0.515625q0.78125 0.515625 1.078125 1.546875l-1.953125 0.359375q-0.125 -0.453125 -0.46875 -0.6875q-0.34375 -0.25 -0.984375 -0.25q-0.8125 0 -1.171875 0.21875q-0.234375 0.15625 -0.234375 0.421875q0 0.21875 0.203125 0.375q0.28125 0.203125 1.921875 0.578125q1.65625 0.375 2.296875 0.90625q0.65625 0.5625 0.65625 1.53125q0 1.078125 -0.90625 1.84375q-0.890625 0.765625 -2.640625 0.765625q-1.59375 0 -2.515625 -0.640625q-0.921875 -0.640625 -1.203125 -1.75zm12.432312 -5.5625l0 1.640625l-1.40625 0l0 3.140625q0 0.953125 0.03125 1.109375q0.046875 0.15625 0.1875 0.265625q0.15625 0.09375 0.359375 0.09375q0.28125 0 0.828125 -0.203125l0.171875 1.609375q-0.71875 0.296875 -1.625 0.296875q-0.5625 0 -1.015625 -0.1875q-0.4375 -0.1875 -0.65625 -0.484375q-0.203125 -0.296875 -0.28125 -0.796875q-0.0625 -0.359375 -0.0625 -1.453125l0 -3.390625l-0.9375 0l0 -1.640625l0.9375 0l0 -1.546875l2.0625 -1.203125l0 2.75l1.40625 0z" fill-rule="nonzero"></path><path fill="#3d85c6" d="m769.6351 443.4252l123.1181 0l0 82.39371l-123.1181 0z" fill-rule="nonzero"></path><path stroke="#000000" stroke-width="2.0" stroke-linejoin="round" stroke-linecap="butt" d="m769.6351 443.4252l123.1181 0l0 82.39371l-123.1181 0z" fill-rule="nonzero"></path><path fill="#000000" d="m793.61487 489.45798l0 -10.734375l3.484375 0q1.96875 0 2.578125 0.15625q0.921875 0.25 1.53125 1.0625q0.625 0.796875 0.625 2.078125q0 0.984375 -0.359375 1.671875q-0.359375 0.671875 -0.90625 1.0625q-0.546875 0.375 -1.125 0.5q-0.78125 0.15625 -2.25 0.15625l-1.40625 0l0 4.046875l-2.171875 0zm2.171875 -8.921875l0 3.046875l1.1875 0q1.28125 0 1.703125 -0.171875q0.4375 -0.171875 0.671875 -0.515625q0.25 -0.359375 0.25 -0.84375q0 -0.578125 -0.34375 -0.953125q-0.34375 -0.390625 -0.875 -0.484375q-0.375 -0.078125 -1.546875 -0.078125l-1.046875 0zm9.556824 8.921875l-2.0625 0l0 -7.78125l1.921875 0l0 1.109375q0.484375 -0.78125 0.875 -1.03125q0.390625 -0.25 0.890625 -0.25q0.703125 0 1.359375 0.390625l-0.640625 1.796875q-0.515625 -0.34375 -0.96875 -0.34375q-0.4375 0 -0.734375 0.25q-0.296875 0.234375 -0.46875 0.859375q-0.171875 0.609375 -0.171875 2.59375l0 2.40625zm3.2505493 -4.0q0 -1.03125 0.5 -1.984375q0.515625 -0.953125 1.4375 -1.453125q0.9375 -0.515625 2.078125 -0.515625q1.765625 0 2.890625 1.15625q1.125 1.140625 1.125 2.890625q0 1.765625 -1.140625 2.921875q-1.140625 1.15625 -2.859375 1.15625q-1.078125 0 -2.046875 -0.484375q-0.96875 -0.484375 -1.484375 -1.40625q-0.5 -0.9375 -0.5 -2.28125zm2.109375 0.109375q0 1.15625 0.546875 1.78125q0.5625 0.609375 1.359375 0.609375q0.8125 0 1.359375 -0.609375q0.546875 -0.625 0.546875 -1.796875q0 -1.140625 -0.546875 -1.75q-0.546875 -0.625 -1.359375 -0.625q-0.796875 0 -1.359375 0.625q-0.546875 0.609375 -0.546875 1.765625zm14.452576 3.890625l-1.90625 0l0 -1.140625q-0.46875 0.671875 -1.125 1.0q-0.640625 0.3125 -1.296875 0.3125q-1.34375 0 -2.3125 -1.078125q-0.953125 -1.078125 -0.953125 -3.015625q0 -1.96875 0.921875 -3.0q0.9375 -1.03125 2.359375 -1.03125q1.3125 0 2.265625 1.078125l0 -3.859375l2.046875 0l0 10.734375zm-5.484375 -4.0625q0 1.25 0.34375 1.8125q0.5 0.796875 1.390625 0.796875q0.703125 0 1.203125 -0.59375q0.5 -0.609375 0.5 -1.8125q0 -1.34375 -0.484375 -1.921875q-0.484375 -0.59375 -1.234375 -0.59375q-0.734375 0 -1.234375 0.578125q-0.484375 0.578125 -0.484375 1.734375zm12.437012 4.0625l0 -1.171875q-0.4375 0.625 -1.125 0.984375q-0.6875 0.359375 -1.453125 0.359375q-0.796875 0 -1.421875 -0.34375q-0.609375 -0.34375 -0.890625 -0.96875q-0.28125 -0.625 -0.28125 -1.71875l0 -4.921875l2.0625 0l0 3.578125q0 1.640625 0.109375 2.015625q0.109375 0.359375 0.40625 0.578125q0.3125 0.21875 0.765625 0.21875q0.53125 0 0.953125 -0.28125q0.421875 -0.296875 0.5625 -0.71875q0.15625 -0.4375 0.15625 -2.109375l0 -3.28125l2.0625 0l0 7.78125l-1.90625 0zm10.608887 -5.484375l-2.03125 0.375q-0.09375 -0.609375 -0.46875 -0.90625q-0.359375 -0.3125 -0.9375 -0.3125q-0.765625 0 -1.234375 0.53125q-0.453125 0.515625 -0.453125 1.765625q0 1.390625 0.46875 1.96875q0.46875 0.5625 1.25 0.5625q0.59375 0 0.953125 -0.328125q0.375 -0.34375 0.53125 -1.15625l2.03125 0.34375q-0.328125 1.390625 -1.21875 2.109375q-0.890625 0.703125 -2.390625 0.703125q-1.703125 0 -2.71875 -1.078125q-1.015625 -1.078125 -1.015625 -2.96875q0 -1.9375 1.015625 -3.0q1.015625 -1.078125 2.75 -1.078125q1.421875 0 2.265625 0.609375q0.84375 0.609375 1.203125 1.859375zm4.932373 -2.296875l0 1.640625l-1.40625 0l0 3.140625q0 0.953125 0.03125 1.109375q0.046875 0.15625 0.1875 0.265625q0.15625 0.09375 0.359375 0.09375q0.28125 0 0.828125 -0.203125l0.171875 1.609375q-0.71875 0.296875 -1.625 0.296875q-0.5625 0 -1.015625 -0.1875q-0.4375 -0.1875 -0.65625 -0.484375q-0.203125 -0.296875 -0.28125 -0.796875q-0.0625 -0.359375 -0.0625 -1.453125l0 -3.390625l-0.9375 0l0 -1.640625l0.9375 0l0 -1.546875l2.0625 -1.203125l0 2.75l1.40625 0zm1.3181152 -1.046875l0 -1.90625l2.0625 0l0 1.90625l-2.0625 0zm0 8.828125l0 -7.78125l2.0625 0l0 7.78125l-2.0625 0zm3.5875854 -4.0q0 -1.03125 0.5 -1.984375q0.515625 -0.953125 1.4375 -1.453125q0.9375 -0.515625 2.078125 -0.515625q1.765625 0 2.890625 1.15625q1.125 1.140625 1.125 2.890625q0 1.765625 -1.140625 2.921875q-1.140625 1.15625 -2.859375 1.15625q-1.078125 0 -2.046875 -0.484375q-0.96875 -0.484375 -1.484375 -1.40625q-0.5 -0.9375 -0.5 -2.28125zm2.109375 0.109375q0 1.15625 0.546875 1.78125q0.5625 0.609375 1.359375 0.609375q0.8125 0 1.359375 -0.609375q0.546875 -0.625 0.546875 -1.796875q0 -1.140625 -0.546875 -1.75q-0.546875 -0.625 -1.359375 -0.625q-0.796875 0 -1.359375 0.625q-0.546875 0.609375 -0.546875 1.765625zm14.405762 3.890625l-2.0625 0l0 -3.96875q0 -1.265625 -0.140625 -1.625q-0.125 -0.375 -0.421875 -0.578125q-0.296875 -0.203125 -0.71875 -0.203125q-0.53125 0 -0.953125 0.296875q-0.421875 0.28125 -0.578125 0.765625q-0.15625 0.484375 -0.15625 1.796875l0 3.515625l-2.0625 0l0 -7.78125l1.90625 0l0 1.140625q1.015625 -1.3125 2.5625 -1.3125q0.6875 0 1.25 0.25q0.5625 0.234375 0.84375 0.625q0.296875 0.375 0.40625 0.859375q0.125 0.484375 0.125 1.390625l0 4.828125z" fill-rule="nonzero"></path><path stroke="#000000" stroke-width="1.5397136211395264" stroke-linecap="butt" d="m792.5211 491.01202l77.34607 0" fill-rule="nonzero"></path><path fill="#f6b26b" d="m378.2126 452.33597l0 0c0 5.7533264 24.4234 10.417328 54.551178 10.417328c30.127808 0 54.55121 -4.6640015 54.55121 -10.417328l0 62.503937c0 5.753296 -24.4234 10.417297 -54.55121 10.417297c-30.127777 0 -54.551178 -4.6640015 -54.551178 -10.417297z" fill-rule="nonzero"></path><path fill="#f9d0a6" d="m378.2126 452.33597l0 0c0 -5.7533264 24.4234 -10.417328 54.551178 -10.417328c30.127808 0 54.55121 4.6640015 54.55121 10.417328l0 0c0 5.7533264 -24.4234 10.417328 -54.55121 10.417328c-30.127777 0 -54.551178 -4.6640015 -54.551178 -10.417328z" fill-rule="nonzero"></path><path fill="#000000" fill-opacity="0.0" d="m487.31497 452.33597l0 0c0 5.7533264 -24.4234 10.417328 -54.55121 10.417328c-30.127777 0 -54.551178 -4.6640015 -54.551178 -10.417328l0 0c0 -5.7533264 24.4234 -10.417328 54.551178 -10.417328c30.127808 0 54.55121 4.6640015 54.55121 10.417328l0 62.503937c0 5.753296 -24.4234 10.417297 -54.55121 10.417297c-30.127777 0 -54.551178 -4.6640015 -54.551178 -10.417297l0 -62.503937" fill-rule="nonzero"></path><path stroke="#000000" stroke-width="2.0" stroke-linejoin="round" stroke-linecap="butt" d="m487.31497 452.33597l0 0c0 5.7533264 -24.4234 10.417328 -54.55121 10.417328c-30.127777 0 -54.551178 -4.6640015 -54.551178 -10.417328l0 0c0 -5.7533264 24.4234 -10.417328 54.551178 -10.417328c30.127808 0 54.55121 4.6640015 54.55121 10.417328l0 62.503937c0 5.753296 -24.4234 10.417297 -54.55121 10.417297c-30.127777 0 -54.551178 -4.6640015 -54.551178 -10.417297l0 -62.503937" fill-rule="nonzero"></path><path fill="#000000" d="m417.893 485.20285l-2.359375 0l-0.9375 -2.4375l-4.296875 0l-0.890625 2.4375l-2.296875 0l4.1875 -10.734375l2.28125 0l4.3125 10.734375zm-4.0 -4.25l-1.484375 -3.984375l-1.4375 3.984375l2.921875 0zm6.8499146 4.25l-2.0625 0l0 -7.78125l1.921875 0l0 1.109375q0.484375 -0.78125 0.875 -1.03125q0.390625 -0.25 0.890625 -0.25q0.703125 0 1.359375 0.390625l-0.640625 1.796875q-0.515625 -0.34375 -0.96875 -0.34375q-0.4375 0 -0.734375 0.25q-0.296875 0.234375 -0.46875 0.859375q-0.171875 0.609375 -0.171875 2.59375l0 2.40625zm7.2973633 -7.78125l0 1.640625l-1.40625 0l0 3.140625q0 0.953125 0.03125 1.109375q0.046875 0.15625 0.1875 0.265625q0.15625 0.09375 0.359375 0.09375q0.28125 0 0.828125 -0.203125l0.171875 1.609375q-0.71875 0.296875 -1.625 0.296875q-0.5625 0 -1.015625 -0.1875q-0.4375 -0.1875 -0.65625 -0.484375q-0.203125 -0.296875 -0.28125 -0.796875q-0.0625 -0.359375 -0.0625 -1.453125l0 -3.390625l-0.9375 0l0 -1.640625l0.9375 0l0 -1.546875l2.0625 -1.203125l0 2.75l1.40625 0zm1.3181458 -1.046875l0 -1.90625l2.0625 0l0 1.90625l-2.0625 0zm0 8.828125l0 -7.78125l2.0625 0l0 7.78125l-2.0625 0zm3.165741 -7.78125l1.140625 0l0 -0.578125q0 -0.984375 0.203125 -1.46875q0.21875 -0.484375 0.78125 -0.78125q0.5625 -0.3125 1.421875 -0.3125q0.875 0 1.71875 0.265625l-0.28125 1.4375q-0.484375 -0.125 -0.9375 -0.125q-0.453125 0 -0.65625 0.21875q-0.1875 0.203125 -0.1875 0.796875l0 0.546875l1.546875 0l0 1.625l-1.546875 0l0 6.15625l-2.0625 0l0 -6.15625l-1.140625 0l0 -1.625zm7.3181458 2.375l-1.859375 -0.34375q0.3125 -1.125 1.078125 -1.65625q0.765625 -0.546875 2.28125 -0.546875q1.390625 0 2.0625 0.328125q0.671875 0.328125 0.9375 0.828125q0.28125 0.5 0.28125 1.84375l-0.015625 2.390625q0 1.03125 0.09375 1.515625q0.09375 0.484375 0.375 1.046875l-2.046875 0q-0.078125 -0.203125 -0.1875 -0.609375q-0.0625 -0.1875 -0.078125 -0.234375q-0.53125 0.5 -1.140625 0.765625q-0.59375 0.25 -1.265625 0.25q-1.203125 0 -1.90625 -0.640625q-0.6875 -0.65625 -0.6875 -1.65625q0 -0.65625 0.3125 -1.171875q0.328125 -0.515625 0.890625 -0.78125q0.5625 -0.28125 1.640625 -0.5q1.4375 -0.265625 2.0 -0.5l0 -0.203125q0 -0.59375 -0.296875 -0.84375q-0.296875 -0.25 -1.109375 -0.25q-0.546875 0 -0.859375 0.21875q-0.296875 0.203125 -0.5 0.75zm2.765625 1.671875q-0.40625 0.125 -1.265625 0.3125q-0.84375 0.1875 -1.109375 0.359375q-0.40625 0.28125 -0.40625 0.71875q0 0.4375 0.3125 0.75q0.328125 0.3125 0.828125 0.3125q0.5625 0 1.0625 -0.359375q0.375 -0.28125 0.484375 -0.6875q0.09375 -0.25 0.09375 -1.0l0 -0.40625zm10.635468 -1.75l-2.03125 0.375q-0.09375 -0.609375 -0.46875 -0.90625q-0.359375 -0.3125 -0.9375 -0.3125q-0.765625 0 -1.234375 0.53125q-0.453125 0.515625 -0.453125 1.765625q0 1.390625 0.46875 1.96875q0.46875 0.5625 1.25 0.5625q0.59375 0 0.953125 -0.328125q0.375 -0.34375 0.53125 -1.15625l2.03125 0.34375q-0.328125 1.390625 -1.21875 2.109375q-0.890625 0.703125 -2.390625 0.703125q-1.703125 0 -2.71875 -1.078125q-1.015625 -1.078125 -1.015625 -2.96875q0 -1.9375 1.015625 -3.0q1.015625 -1.078125 2.75 -1.078125q1.421875 0 2.265625 0.609375q0.84375 0.609375 1.203125 1.859375zm4.932373 -2.296875l0 1.640625l-1.40625 0l0 3.140625q0 0.953125 0.03125 1.109375q0.046875 0.15625 0.1875 0.265625q0.15625 0.09375 0.359375 0.09375q0.28125 0 0.828125 -0.203125l0.171875 1.609375q-0.71875 0.296875 -1.625 0.296875q-0.5625 0 -1.015625 -0.1875q-0.4375 -0.1875 -0.65625 -0.484375q-0.203125 -0.296875 -0.28125 -0.796875q-0.0625 -0.359375 -0.0625 -1.453125l0 -3.390625l-0.9375 0l0 -1.640625l0.9375 0l0 -1.546875l2.0625 -1.203125l0 2.75l1.40625 0z" fill-rule="nonzero"></path><path fill="#000000" d="m395.58167 502.06223l0 -10.734375l4.5625 0q1.734375 0 2.5 0.296875q0.78125 0.28125 1.25 1.03125q0.46875 0.734375 0.46875 1.671875q0 1.21875 -0.71875 2.015625q-0.703125 0.78125 -2.109375 0.984375q0.703125 0.40625 1.15625 0.90625q0.46875 0.484375 1.234375 1.734375l1.3125 2.09375l-2.59375 0l-1.5625 -2.34375q-0.84375 -1.25 -1.15625 -1.5625q-0.296875 -0.328125 -0.640625 -0.453125q-0.34375 -0.125 -1.09375 -0.125l-0.4375 0l0 4.484375l-2.171875 0zm2.171875 -6.203125l1.609375 0q1.5625 0 1.9375 -0.125q0.390625 -0.125 0.609375 -0.453125q0.21875 -0.328125 0.21875 -0.8125q0 -0.53125 -0.296875 -0.859375q-0.28125 -0.34375 -0.796875 -0.4375q-0.265625 -0.03125 -1.59375 -0.03125l-1.6875 0l0 2.71875zm12.89679 3.734375l2.046875 0.34375q-0.390625 1.125 -1.25 1.71875q-0.84375 0.578125 -2.125 0.578125q-2.03125 0 -3.0 -1.328125q-0.78125 -1.0625 -0.78125 -2.671875q0 -1.9375 1.015625 -3.03125q1.015625 -1.09375 2.5625 -1.09375q1.734375 0 2.734375 1.15625q1.0 1.140625 0.953125 3.5l-5.15625 0q0.03125 0.921875 0.5 1.4375q0.484375 0.5 1.1875 0.5q0.484375 0 0.8125 -0.265625q0.328125 -0.265625 0.5 -0.84375zm0.125 -2.09375q-0.03125 -0.890625 -0.46875 -1.34375q-0.4375 -0.46875 -1.0625 -0.46875q-0.671875 0 -1.125 0.484375q-0.4375 0.5 -0.421875 1.328125l3.078125 0zm3.4635925 -3.21875l1.921875 0l0 1.140625q0.375 -0.578125 1.0 -0.9375q0.640625 -0.375 1.421875 -0.375q1.359375 0 2.296875 1.0625q0.953125 1.0625 0.953125 2.953125q0 1.953125 -0.953125 3.03125q-0.953125 1.078125 -2.3125 1.078125q-0.640625 0 -1.171875 -0.25q-0.515625 -0.265625 -1.09375 -0.875l0 3.90625l-2.0625 0l0 -10.734375zm2.03125 3.765625q0 1.3125 0.515625 1.9375q0.53125 0.625 1.28125 0.625q0.71875 0 1.1875 -0.578125q0.484375 -0.578125 0.484375 -1.890625q0 -1.21875 -0.5 -1.8125q-0.484375 -0.59375 -1.203125 -0.59375q-0.765625 0 -1.265625 0.59375q-0.5 0.578125 -0.5 1.71875zm6.4995117 0.015625q0 -1.03125 0.5 -1.984375q0.515625 -0.953125 1.4375 -1.453125q0.9375 -0.515625 2.078125 -0.515625q1.765625 0 2.890625 1.15625q1.125 1.140625 1.125 2.890625q0 1.765625 -1.140625 2.921875q-1.140625 1.15625 -2.859375 1.15625q-1.078125 0 -2.046875 -0.484375q-0.96875 -0.484375 -1.484375 -1.40625q-0.5 -0.9375 -0.5 -2.28125zm2.109375 0.109375q0 1.15625 0.546875 1.78125q0.5625 0.609375 1.359375 0.609375q0.8125 0 1.359375 -0.609375q0.546875 -0.625 0.546875 -1.796875q0 -1.140625 -0.546875 -1.75q-0.546875 -0.625 -1.359375 -0.625q-0.796875 0 -1.359375 0.625q-0.546875 0.609375 -0.546875 1.765625zm6.608856 1.671875l2.0625 -0.3125q0.125 0.59375 0.53125 0.90625q0.40625 0.3125 1.125 0.3125q0.796875 0 1.203125 -0.296875q0.265625 -0.203125 0.265625 -0.546875q0 -0.234375 -0.140625 -0.390625q-0.15625 -0.140625 -0.6875 -0.265625q-2.484375 -0.546875 -3.15625 -1.0q-0.921875 -0.640625 -0.921875 -1.75q0 -1.015625 0.796875 -1.703125q0.796875 -0.6875 2.46875 -0.6875q1.609375 0 2.375 0.515625q0.78125 0.515625 1.078125 1.546875l-1.953125 0.359375q-0.125 -0.453125 -0.46875 -0.6875q-0.34375 -0.25 -0.984375 -0.25q-0.8125 0 -1.171875 0.21875q-0.234375 0.15625 -0.234375 0.421875q0 0.21875 0.203125 0.375q0.28125 0.203125 1.921875 0.578125q1.65625 0.375 2.296875 0.90625q0.65625 0.5625 0.65625 1.53125q0 1.078125 -0.90625 1.84375q-0.890625 0.765625 -2.640625 0.765625q-1.59375 0 -2.515625 -0.640625q-0.921875 -0.640625 -1.203125 -1.75zm8.869873 -6.609375l0 -1.90625l2.0625 0l0 1.90625l-2.0625 0zm0 8.828125l0 -7.78125l2.0625 0l0 7.78125l-2.0625 0zm7.6344604 -7.78125l0 1.640625l-1.40625 0l0 3.140625q0 0.953125 0.03125 1.109375q0.046875 0.15625 0.1875 0.265625q0.15625 0.09375 0.359375 0.09375q0.28125 0 0.828125 -0.203125l0.171875 1.609375q-0.71875 0.296875 -1.625 0.296875q-0.5625 0 -1.015625 -0.1875q-0.4375 -0.1875 -0.65625 -0.484375q-0.203125 -0.296875 -0.28125 -0.796875q-0.0625 -0.359375 -0.0625 -1.453125l0 -3.390625l-0.9375 0l0 -1.640625l0.9375 0l0 -1.546875l2.0625 -1.203125l0 2.75l1.40625 0zm0.83377075 3.78125q0 -1.03125 0.5 -1.984375q0.515625 -0.953125 1.4375 -1.453125q0.9375 -0.515625 2.078125 -0.515625q1.765625 0 2.890625 1.15625q1.125 1.140625 1.125 2.890625q0 1.765625 -1.140625 2.921875q-1.140625 1.15625 -2.859375 1.15625q-1.078125 0 -2.046875 -0.484375q-0.96875 -0.484375 -1.484375 -1.40625q-0.5 -0.9375 -0.5 -2.28125zm2.109375 0.109375q0 1.15625 0.546875 1.78125q0.5625 0.609375 1.359375 0.609375q0.8125 0 1.359375 -0.609375q0.546875 -0.625 0.546875 -1.796875q0 -1.140625 -0.546875 -1.75q-0.546875 -0.625 -1.359375 -0.625q-0.796875 0 -1.359375 0.625q-0.546875 0.609375 -0.546875 1.765625zm9.296387 3.890625l-2.0625 0l0 -7.78125l1.921875 0l0 1.109375q0.484375 -0.78125 0.875 -1.03125q0.390625 -0.25 0.890625 -0.25q0.703125 0 1.359375 0.390625l-0.640625 1.796875q-0.515625 -0.34375 -0.96875 -0.34375q-0.4375 0 -0.734375 0.25q-0.296875 0.234375 -0.46875 0.859375q-0.171875 0.609375 -0.171875 2.59375l0 2.40625zm2.7661133 -7.78125l2.1875 0l1.859375 5.53125l1.8125 -5.53125l2.125 0l-2.734375 7.484375l-0.5 1.359375q-0.265625 0.6875 -0.515625 1.046875q-0.234375 0.359375 -0.5625 0.578125q-0.3125 0.21875 -0.78125 0.34375q-0.46875 0.125 -1.046875 0.125q-0.59375 0 -1.171875 -0.125l-0.1875 -1.609375q0.484375 0.09375 0.875 0.09375q0.71875 0 1.0625 -0.421875q0.34375 -0.421875 0.53125 -1.078125l-2.953125 -7.796875z" fill-rule="nonzero"></path><path fill="#cfe2f3" d="m362.85303 276.7034l53.93701 0l0 -6.0551147l12.1102295 12.11026l-12.1102295 12.1102295l0 -6.0551147l-53.93701 0z" fill-rule="nonzero"></path><path stroke="#000000" stroke-width="2.0" stroke-linejoin="round" stroke-linecap="butt" d="m362.85303 276.7034l53.93701 0l0 -6.0551147l12.1102295 12.11026l-12.1102295 12.1102295l0 -6.0551147l-53.93701 0z" fill-rule="nonzero"></path><path fill="#cfe2f3" d="m566.52234 277.021l53.93695 0l0 -6.0551147l12.110291 12.1102295l-12.110291 12.1102295l0 -6.0551147l-53.93695 0z" fill-rule="nonzero"></path><path stroke="#000000" stroke-width="2.0" stroke-linejoin="round" stroke-linecap="butt" d="m566.52234 277.021l53.93695 0l0 -6.0551147l12.110291 12.1102295l-12.110291 12.1102295l0 -6.0551147l-53.93695 0z" fill-rule="nonzero"></path><path fill="#cfe2f3" d="m770.1916 276.7034l53.93701 0l0 -6.0551147l12.1102295 12.11026l-12.1102295 12.1102295l0 -6.0551147l-53.93701 0z" fill-rule="nonzero"></path><path stroke="#000000" stroke-width="2.0" stroke-linejoin="round" stroke-linecap="butt" d="m770.1916 276.7034l53.93701 0l0 -6.0551147l12.1102295 12.11026l-12.1102295 12.1102295l0 -6.0551147l-53.93701 0z" fill-rule="nonzero"></path><path fill="#cfe2f3" d="m102.66929 478.2546l53.93702 0l0 -6.0551453l12.1102295 12.11026l-12.1102295 12.1102295l0 -6.0551147l-53.93702 0z" fill-rule="nonzero"></path><path stroke="#000000" stroke-width="2.0" stroke-linejoin="round" stroke-linecap="butt" d="m102.66929 478.2546l53.93702 0l0 -6.0551453l12.1102295 12.11026l-12.1102295 12.1102295l0 -6.0551147l-53.93702 0z" fill-rule="nonzero"></path><path fill="#cfe2f3" d="m305.38846 478.2546l53.93701 0l0 -6.0551453l12.1102295 12.11026l-12.1102295 12.1102295l0 -6.0551147l-53.93701 0z" fill-rule="nonzero"></path><path stroke="#000000" stroke-width="2.0" stroke-linejoin="round" stroke-linecap="butt" d="m305.38846 478.2546l53.93701 0l0 -6.0551453l12.1102295 12.11026l-12.1102295 12.1102295l0 -6.0551147l-53.93701 0z" fill-rule="nonzero"></path><path fill="#cfe2f3" d="m494.09186 478.56693l53.93701 0l0 -6.0551147l12.1102295 12.1102295l-12.1102295 12.1102295l0 -6.0551147l-53.93701 0z" fill-rule="nonzero"></path><path stroke="#000000" stroke-width="2.0" stroke-linejoin="round" stroke-linecap="butt" d="m494.09186 478.56693l53.93701 0l0 -6.0551147l12.1102295 12.1102295l-12.1102295 12.1102295l0 -6.0551147l-53.93701 0z" fill-rule="nonzero"></path><path fill="#fff2cc" d="m696.81104 477.5328l53.93701 0l0 -6.0551147l12.1102295 12.1102295l-12.1102295 12.1102295l0 -6.0551147l-53.93701 0z" fill-rule="nonzero"></path><path stroke="#000000" stroke-width="2.0" stroke-linejoin="round" stroke-linecap="butt" d="m696.81104 477.5328l53.93701 0l0 -6.0551147l12.1102295 12.1102295l-12.1102295 12.1102295l0 -6.0551147l-53.93701 0z" fill-rule="nonzero"></path><path fill="#000000" fill-opacity="0.0" d="m167.56955 241.56168l76.8504 0l0 29.417328l-76.8504 0z" fill-rule="nonzero"></path><path fill="#000000" d="m190.6821 259.35855l1.234375 0.3125q-0.390625 1.515625 -1.40625 2.3125q-1.0 0.796875 -2.453125 0.796875q-1.5 0 -2.453125 -0.609375q-0.9375 -0.609375 -1.4375 -1.765625q-0.484375 -1.171875 -0.484375 -2.5q0 -1.453125 0.5625 -2.53125q0.5625 -1.09375 1.578125 -1.65625q1.03125 -0.5625 2.265625 -0.5625q1.390625 0 2.34375 0.71875q0.953125 0.703125 1.328125 2.0l-1.21875 0.28125q-0.328125 -1.015625 -0.9375 -1.46875q-0.609375 -0.46875 -1.546875 -0.46875q-1.078125 0 -1.796875 0.515625q-0.71875 0.515625 -1.015625 1.375q-0.28125 0.859375 -0.28125 1.78125q0 1.1875 0.34375 2.078125q0.34375 0.890625 1.0625 1.328125q0.734375 0.4375 1.59375 0.4375q1.03125 0 1.75 -0.59375q0.71875 -0.609375 0.96875 -1.78125zm2.4220276 -0.109375q0 -1.875 1.03125 -2.765625q0.875 -0.75 2.125 -0.75q1.390625 0 2.265625 0.90625q0.890625 0.90625 0.890625 2.515625q0 1.296875 -0.390625 2.046875q-0.390625 0.75 -1.140625 1.171875q-0.75 0.40625 -1.625 0.40625q-1.421875 0 -2.296875 -0.90625q-0.859375 -0.90625 -0.859375 -2.625zm1.171875 0q0 1.296875 0.5625 1.953125q0.5625 0.640625 1.421875 0.640625q0.84375 0 1.40625 -0.640625q0.578125 -0.65625 0.578125 -1.984375q0 -1.25 -0.578125 -1.890625q-0.5625 -0.65625 -1.40625 -0.65625q-0.859375 0 -1.421875 0.640625q-0.5625 0.640625 -0.5625 1.9375zm6.6624756 3.375l0 -6.734375l1.015625 0l0 0.9375q0.328125 -0.5 0.84375 -0.796875q0.53125 -0.296875 1.203125 -0.296875q0.75 0 1.21875 0.3125q0.484375 0.3125 0.6875 0.859375q0.796875 -1.171875 2.078125 -1.171875q1.0 0 1.53125 0.5625q0.546875 0.546875 0.546875 1.703125l0 4.625l-1.125 0l0 -4.25q0 -0.6875 -0.109375 -0.984375q-0.109375 -0.296875 -0.40625 -0.484375q-0.296875 -0.1875 -0.6875 -0.1875q-0.71875 0 -1.1875 0.484375q-0.46875 0.46875 -0.46875 1.5l0 3.921875l-1.140625 0l0 -4.375q0 -0.765625 -0.28125 -1.140625q-0.28125 -0.390625 -0.90625 -0.390625q-0.484375 0 -0.890625 0.265625q-0.40625 0.25 -0.59375 0.734375q-0.1875 0.484375 -0.1875 1.40625l0 3.5l-1.140625 0zm11.102432 0l0 -6.734375l1.015625 0l0 0.9375q0.328125 -0.5 0.84375 -0.796875q0.53125 -0.296875 1.203125 -0.296875q0.75 0 1.21875 0.3125q0.484375 0.3125 0.6875 0.859375q0.796875 -1.171875 2.078125 -1.171875q1.0 0 1.53125 0.5625q0.546875 0.546875 0.546875 1.703125l0 4.625l-1.125 0l0 -4.25q0 -0.6875 -0.109375 -0.984375q-0.109375 -0.296875 -0.40625 -0.484375q-0.296875 -0.1875 -0.6875 -0.1875q-0.71875 0 -1.1875 0.484375q-0.46875 0.46875 -0.46875 1.5l0 3.921875l-1.140625 0l0 -4.375q0 -0.765625 -0.28125 -1.140625q-0.28125 -0.390625 -0.90625 -0.390625q-0.484375 0 -0.890625 0.265625q-0.40625 0.25 -0.59375 0.734375q-0.1875 0.484375 -0.1875 1.40625l0 3.5l-1.140625 0zm11.102432 -7.984375l0 -1.328125l1.140625 0l0 1.328125l-1.140625 0zm0 7.984375l0 -6.734375l1.140625 0l0 6.734375l-1.140625 0zm5.46109 -1.015625l0.15625 1.0q-0.484375 0.109375 -0.859375 0.109375q-0.625 0 -0.96875 -0.203125q-0.34375 -0.203125 -0.484375 -0.515625q-0.140625 -0.328125 -0.140625 -1.34375l0 -3.890625l-0.828125 0l0 -0.875l0.828125 0l0 -1.671875l1.140625 -0.6875l0 2.359375l1.15625 0l0 0.875l-1.15625 0l0 3.953125q0 0.484375 0.0625 0.625q0.0625 0.140625 0.1875 0.21875q0.140625 0.078125 0.390625 0.078125q0.203125 0 0.515625 -0.03125z" fill-rule="nonzero"></path><path fill="#000000" fill-opacity="0.0" d="m690.0341 441.91864l76.8504 0l0 29.417328l-76.8504 0z" fill-rule="nonzero"></path><path fill="#000000" d="m713.07806 459.3249l0 -1.078125l3.9375 -0.015625l0 3.453125q-0.90625 0.71875 -1.875 1.09375q-0.953125 0.359375 -1.96875 0.359375q-1.375 0 -2.5 -0.578125q-1.125 -0.59375 -1.703125 -1.703125q-0.5625 -1.109375 -0.5625 -2.484375q0 -1.359375 0.5625 -2.53125q0.578125 -1.1875 1.640625 -1.75q1.078125 -0.578125 2.453125 -0.578125q1.015625 0 1.828125 0.328125q0.8125 0.328125 1.28125 0.921875q0.46875 0.578125 0.703125 1.515625l-1.109375 0.296875q-0.203125 -0.703125 -0.515625 -1.109375q-0.3125 -0.40625 -0.890625 -0.640625q-0.578125 -0.25 -1.28125 -0.25q-0.84375 0 -1.46875 0.265625q-0.609375 0.25 -0.984375 0.671875q-0.375 0.40625 -0.59375 0.90625q-0.34375 0.875 -0.34375 1.875q0 1.25 0.421875 2.09375q0.421875 0.828125 1.234375 1.234375q0.828125 0.40625 1.75 0.40625q0.796875 0 1.5625 -0.296875q0.765625 -0.3125 1.15625 -0.671875l0 -1.734375l-2.734375 0zm5.4451904 0.28125q0 -1.875 1.03125 -2.765625q0.875 -0.75 2.125 -0.75q1.390625 0 2.265625 0.90625q0.890625 0.90625 0.890625 2.515625q0 1.296875 -0.390625 2.046875q-0.390625 0.75 -1.140625 1.171875q-0.75 0.40625 -1.625 0.40625q-1.421875 0 -2.296875 -0.90625q-0.859375 -0.90625 -0.859375 -2.625zm1.171875 0q0 1.296875 0.5625 1.953125q0.5625 0.640625 1.421875 0.640625q0.84375 0 1.40625 -0.640625q0.578125 -0.65625 0.578125 -1.984375q0 -1.25 -0.578125 -1.890625q-0.5625 -0.65625 -1.40625 -0.65625q-0.859375 0 -1.421875 0.640625q-0.5625 0.640625 -0.5625 1.9375zm10.3342285 3.375l0 -9.3125l1.140625 0l0 9.3125l-1.140625 0zm2.9923096 -7.984375l0 -1.328125l1.140625 0l0 1.328125l-1.140625 0zm0 7.984375l0 -6.734375l1.140625 0l0 6.734375l-1.140625 0zm4.8361206 0l-2.5625 -6.734375l1.203125 0l1.4375 4.03125q0.234375 0.65625 0.4375 1.359375q0.15625 -0.53125 0.421875 -1.28125l1.5 -4.109375l1.171875 0l-2.546875 6.734375l-1.0625 0zm9.3984375 -2.171875l1.1875 0.140625q-0.28125 1.046875 -1.046875 1.625q-0.75 0.5625 -1.921875 0.5625q-1.484375 0 -2.359375 -0.90625q-0.859375 -0.921875 -0.859375 -2.5625q0 -1.703125 0.875 -2.640625q0.890625 -0.9375 2.28125 -0.9375q1.359375 0 2.203125 0.921875q0.859375 0.921875 0.859375 2.578125q0 0.109375 0 0.3125l-5.03125 0q0.0625 1.109375 0.625 1.703125q0.5625 0.59375 1.40625 0.59375q0.640625 0 1.078125 -0.328125q0.453125 -0.34375 0.703125 -1.0625zm-3.75 -1.84375l3.765625 0q-0.078125 -0.859375 -0.4375 -1.28125q-0.546875 -0.65625 -1.40625 -0.65625q-0.796875 0 -1.328125 0.53125q-0.53125 0.515625 -0.59375 1.40625z" fill-rule="nonzero"></path></g></svg>

