<?xml version="1.0" standalone="yes"?>

<svg version="1.1" viewBox="0.0 0.0 960.0 720.0" fill="none" stroke="none" stroke-linecap="square" stroke-miterlimit="10" xmlns="http://www.w3.org/2000/svg" xmlns:xlink="http://www.w3.org/1999/xlink"><clipPath id="p.0"><path d="m0 0l960.0 0l0 720.0l-960.0 0l0 -720.0z" clip-rule="nonzero"></path></clipPath><g clip-path="url(#p.0)"><path fill="#ffffff" d="m0 0l960.0 0l0 720.0l-960.0 0z" fill-rule="nonzero"></path><path fill="#fff2cc" d="m856.7008 278.54855l0 0c0 -7.0796814 5.739197 -12.818909 12.818909 -12.818909l0 0c3.3997803 0 6.6602783 1.3505859 9.06427 3.7545776c2.4040527 2.4040222 3.7545776 5.664551 3.7545776 9.064331l0 0c0 7.0796814 -5.739197 12.818909 -12.818848 12.818909l0 0c-7.079712 0 -12.818909 -5.7392273 -12.818909 -12.818909z" fill-rule="nonzero"></path><path stroke="#e6b8af" stroke-width="4.0" stroke-linejoin="round" stroke-linecap="butt" stroke-dasharray="16.0,12.0" d="m856.7008 278.54855l0 0c0 -7.0796814 5.739197 -12.818909 12.818909 -12.818909l0 0c3.3997803 0 6.6602783 1.3505859 9.06427 3.7545776c2.4040527 2.4040222 3.7545776 5.664551 3.7545776 9.064331l0 0c0 7.0796814 -5.739197 12.818909 -12.818848 12.818909l0 0c-7.079712 0 -12.818909 -5.7392273 -12.818909 -12.818909z" fill-rule="nonzero"></path><path fill="#fff2cc" d="m405.23883 278.54855l0 0c0 -7.0796814 5.7392273 -12.818909 12.818909 -12.818909l0 0c3.3997803 0 6.660309 1.3505859 9.064331 3.7545776c2.4040222 2.4040222 3.7545776 5.664551 3.7545776 9.064331l0 0c0 7.0796814 -5.7392273 12.818909 -12.818909 12.818909l0 0c-7.0796814 0 -12.818909 -5.7392273 -12.818909 -12.818909z" fill-rule="nonzero"></path><path stroke="#e6b8af" stroke-width="4.0" stroke-linejoin="round" stroke-linecap="butt" stroke-dasharray="16.0,12.0" d="m405.23883 278.54855l0 0c0 -7.0796814 5.7392273 -12.818909 12.818909 -12.818909l0 0c3.3997803 0 6.660309 1.3505859 9.064331 3.7545776c2.4040222 2.4040222 3.7545776 5.664551 3.7545776 9.064331l0 0c0 7.0796814 -5.7392273 12.818909 -12.818909 12.818909l0 0c-7.0796814 0 -12.818909 -5.7392273 -12.818909 -12.818909z" fill-rule="nonzero"></path><path fill="#000000" fill-opacity="0.0" d="m726.4724 52.43307l-492.94482 0l0 59.370083l492.94482 0z" fill-rule="nonzero"></path><path fill="#000000" d="m335.13477 97.65182l0 -28.640625l12.15625 0q4.59375 0 6.671875 0.78125q2.078125 0.765625 3.328125 2.75q1.25 1.96875 1.25 4.5q0 3.21875 -1.890625 5.328125q-1.890625 2.09375 -5.65625 2.640625q1.875 1.09375 3.09375 2.40625q1.21875 1.3125 3.28125 4.640625l3.5 5.59375l-6.90625 0l-4.1875 -6.234375q-2.21875 -3.34375 -3.046875 -4.203125q-0.8125 -0.875 -1.734375 -1.1875q-0.921875 -0.328125 -2.90625 -0.328125l-1.171875 0l0 11.953125l-5.78125 0zm5.78125 -16.53125l4.265625 0q4.171875 0 5.203125 -0.34375q1.03125 -0.359375 1.609375 -1.21875q0.59375 -0.859375 0.59375 -2.140625q0 -1.453125 -0.78125 -2.328125q-0.765625 -0.890625 -2.171875 -1.125q-0.703125 -0.109375 -4.21875 -0.109375l-4.5 0l0 7.265625zm23.074219 16.53125l0 -28.640625l21.234375 0l0 4.84375l-15.453125 0l0 6.359375l14.375 0l0 4.8125l-14.375 0l0 7.796875l16.0 0l0 4.828125l-21.78125 0zm26.835938 0l0 -28.40625l5.78125 0l0 23.578125l14.375 0l0 4.828125l-20.15625 0zm24.277344 0l0 -28.640625l21.234375 0l0 4.84375l-15.453125 0l0 6.359375l14.375 0l0 4.8125l-14.375 0l0 7.796875l16.0 0l0 4.828125l-21.78125 0zm52.507812 0l-6.296875 0l-2.5 -6.5l-11.4375 0l-2.359375 6.5l-6.140625 0l11.15625 -28.640625l6.109375 0l11.46875 28.640625zm-10.640625 -11.328125l-3.953125 -10.625l-3.859375 10.625l7.8125 0zm12.246094 2.015625l5.625 -0.546875q0.5 2.828125 2.046875 4.15625q1.5625 1.328125 4.203125 1.328125q2.78125 0 4.203125 -1.171875q1.421875 -1.1875 1.421875 -2.78125q0 -1.015625 -0.609375 -1.71875q-0.59375 -0.71875 -2.078125 -1.25q-1.015625 -0.34375 -4.625 -1.25q-4.640625 -1.140625 -6.515625 -2.828125q-2.640625 -2.359375 -2.640625 -5.765625q0 -2.1875 1.234375 -4.078125q1.25 -1.90625 3.578125 -2.90625q2.328125 -1.0 5.640625 -1.0q5.390625 0 8.109375 2.375q2.71875 2.359375 2.859375 6.296875l-5.78125 0.25q-0.375 -2.203125 -1.59375 -3.171875q-1.21875 -0.96875 -3.65625 -0.96875q-2.515625 0 -3.953125 1.046875q-0.90625 0.65625 -0.90625 1.765625q0 1.015625 0.859375 1.75q1.09375 0.90625 5.3125 1.90625q4.21875 1.0 6.234375 2.0625q2.015625 1.0625 3.15625 2.90625q1.15625 1.84375 1.15625 4.5625q0 2.46875 -1.375 4.625q-1.359375 2.140625 -3.859375 3.1875q-2.5 1.046875 -6.234375 1.046875q-5.4375 0 -8.34375 -2.515625q-2.90625 -2.515625 -3.46875 -7.3125zm28.132812 9.3125l0 -28.640625l21.234375 0l0 4.84375l-15.453125 0l0 6.359375l14.375 0l0 4.8125l-14.375 0l0 7.796875l16.0 0l0 4.828125l-21.78125 0zm37.82422 0l0 -28.640625l12.15625 0q4.59375 0 6.671875 0.78125q2.078125 0.765625 3.328125 2.75q1.25 1.96875 1.25 4.5q0 3.21875 -1.890625 5.328125q-1.890625 2.09375 -5.65625 2.640625q1.875 1.09375 3.09375 2.40625q1.21875 1.3125 3.28125 4.640625l3.5 5.59375l-6.90625 0l-4.1875 -6.234375q-2.21875 -3.34375 -3.046875 -4.203125q-0.8125 -0.875 -1.734375 -1.1875q-0.921875 -0.328125 -2.90625 -0.328125l-1.171875 0l0 11.953125l-5.78125 0zm5.78125 -16.53125l4.265625 0q4.171875 0 5.203125 -0.34375q1.03125 -0.359375 1.609375 -1.21875q0.59375 -0.859375 0.59375 -2.140625q0 -1.453125 -0.78125 -2.328125q-0.765625 -0.890625 -2.171875 -1.125q-0.703125 -0.109375 -4.21875 -0.109375l-4.5 0l0 7.265625zm22.902344 16.53125l0 -28.640625l5.78125 0l0 28.640625l-5.78125 0zm9.832031 -9.3125l5.625 -0.546875q0.5 2.828125 2.046875 4.15625q1.5625 1.328125 4.203125 1.328125q2.78125 0 4.203125 -1.171875q1.421875 -1.1875 1.421875 -2.78125q0 -1.015625 -0.609375 -1.71875q-0.59375 -0.71875 -2.078125 -1.25q-1.015625 -0.34375 -4.625 -1.25q-4.640625 -1.140625 -6.515625 -2.828125q-2.640625 -2.359375 -2.640625 -5.765625q0 -2.1875 1.234375 -4.078125q1.25 -1.90625 3.578125 -2.90625q2.328125 -1.0 5.640625 -1.0q5.390625 0 8.109375 2.375q2.71875 2.359375 2.859375 6.296875l-5.78125 0.25q-0.375 -2.203125 -1.59375 -3.171875q-1.21875 -0.96875 -3.65625 -0.96875q-2.515625 0 -3.953125 1.046875q-0.90625 0.65625 -0.90625 1.765625q0 1.015625 0.859375 1.75q1.09375 0.90625 5.3125 1.90625q4.21875 1.0 6.234375 2.0625q2.015625 1.0625 3.15625 2.90625q1.15625 1.84375 1.15625 4.5625q0 2.46875 -1.375 4.625q-1.359375 2.140625 -3.859375 3.1875q-2.5 1.046875 -6.234375 1.046875q-5.4375 0 -8.34375 -2.515625q-2.90625 -2.515625 -3.46875 -7.3125zm28.210938 9.3125l0 -28.640625l5.78125 0l0 12.71875l11.6875 -12.71875l7.765625 0l-10.78125 11.15625l11.375 17.484375l-7.484375 0l-7.875 -13.4375l-4.6875 4.78125l0 8.65625l-5.78125 0z" fill-rule="nonzero"></path><path fill="#cfe2f3" d="m455.2467 405.66928l56.26773 0l0 -4.88974l9.7795105 9.7795105l-9.7795105 9.779541l0 -4.8897705l-56.26773 0z" fill-rule="nonzero"></path><path stroke="#000000" stroke-width="2.0" stroke-linejoin="round" stroke-linecap="butt" d="m455.2467 405.66928l56.26773 0l0 -4.88974l9.7795105 9.7795105l-9.7795105 9.779541l0 -4.8897705l-56.26773 0z" fill-rule="nonzero"></path><path fill="#000000" fill-opacity="0.0" d="m112.28215 533.6798l309.98425 0.94488525" fill-rule="nonzero"></path><path stroke="#000000" stroke-width="4.0" stroke-linejoin="round" stroke-linecap="butt" d="m112.28215 533.6798l285.98438 0.8717041" fill-rule="evenodd"></path><path fill="#000000" stroke="#000000" stroke-width="4.0" stroke-linecap="butt" d="m398.24637 541.1584l18.172455 -6.5515137l-18.132172 -6.6622314z" fill-rule="evenodd"></path><path fill="#000000" d="m109.93569 530.3727l4.692917 0l0 5.6063232l-4.692917 0z" fill-rule="nonzero"></path><path stroke="#000000" stroke-width="2.0" stroke-linejoin="round" stroke-linecap="butt" d="m109.93569 530.3727l4.692917 0l0 5.6063232l-4.692917 0z" fill-rule="nonzero"></path><path fill="#000000" fill-opacity="0.0" d="m556.6273 534.042l309.88977 0.22045898" fill-rule="nonzero"></path><path stroke="#000000" stroke-width="4.0" stroke-linejoin="round" stroke-linecap="butt" d="m556.6273 534.042l285.88977 0.20343018" fill-rule="evenodd"></path><path fill="#000000" stroke="#000000" stroke-width="4.0" stroke-linecap="butt" d="m842.5124 540.8523l18.157043 -6.593994l-18.147644 -6.619812z" fill-rule="evenodd"></path><path fill="#000000" d="m555.68634 530.3727l4.692932 0l0 5.6063232l-4.692932 0z" fill-rule="nonzero"></path><path stroke="#000000" stroke-width="2.0" stroke-linejoin="round" stroke-linecap="butt" d="m555.68634 530.3727l4.692932 0l0 5.6063232l-4.692932 0z" fill-rule="nonzero"></path><path fill="#000000" fill-opacity="0.0" d="m113.28871 465.32626l104.863525 0l0.93699646 -75.12189l109.54593 0l0 -111.18338l88.0105 0" fill-rule="nonzero"></path><path stroke="#990000" stroke-width="3.0" stroke-linejoin="round" stroke-linecap="butt" d="m113.28871 465.32626l104.863525 0l0.93699646 -75.12189l109.54593 0l0 -111.18338l88.0105 0" fill-rule="nonzero"></path><path fill="#000000" fill-opacity="0.0" d="m559.895 518.7072l17.79004 -0.9333496l-0.9370117 -13.056488l18.72699 0.9307556l0 -12.123138l20.59845 0.9333496l0.9343872 -13.056488l14.044617 0.9307251l0 -13.056488l16.853027 0.9333496l0.9370117 -16.787292l18.72705 0l0 -16.787292l18.724365 0l0 -12.123138l16.853027 0l0.9370117 -10.259033l19.661438 0.9307251l0 -12.123138l16.853027 0l0.9370117 -13.989838l16.852966 0l0.9343872 -14.923187l16.853027 0l0.9370117 -19.584747l14.044617 0l1.8713989 -15.853943l13.1102295 0l1.8713989 -17.720642l14.044617 -0.9307251l0.9370117 -15.856567l13.107605 0l0 -13.056488l14.979004 -0.9333496l0 -10.259033l12.173218 -0.9307556" fill-rule="nonzero"></path><path stroke="#274e13" stroke-width="3.0" stroke-linejoin="round" stroke-linecap="butt" d="m559.895 518.7072l17.79004 -0.9333496l-0.9370117 -13.056488l18.72699 0.9307556l0 -12.123138l20.59845 0.9333496l0.9343872 -13.056488l14.044617 0.9307251l0 -13.056488l16.853027 0.9333496l0.9370117 -16.787292l18.72705 0l0 -16.787292l18.724365 0l0 -12.123138l16.853027 0l0.9370117 -10.259033l19.661438 0.9307251l0 -12.123138l16.853027 0l0.9370117 -13.989838l16.852966 0l0.9343872 -14.923187l16.853027 0l0.9370117 -19.584747l14.044617 0l1.8713989 -15.853943l13.1102295 0l1.8713989 -17.720642l14.044617 -0.9307251l0.9370117 -15.856567l13.107605 0l0 -13.056488l14.979004 -0.9333496l0 -10.259033l12.173218 -0.9307556" fill-rule="nonzero"></path><path fill="#000000" fill-opacity="0.0" d="m399.81104 279.021l25.259827 -0.94488525" fill-rule="nonzero"></path><path stroke="#990000" stroke-width="2.0" stroke-linejoin="round" stroke-linecap="butt" d="m399.81104 279.021l13.2682495 -0.49630737" fill-rule="evenodd"></path><path fill="#990000" stroke="#990000" stroke-width="2.0" stroke-linecap="butt" d="m413.20273 281.82584l8.946381 -3.640442l-9.193329 -2.9618835z" fill-rule="evenodd"></path><path fill="#000000" fill-opacity="0.0" d="m856.7008 279.021l6.5511475 -0.94488525" fill-rule="nonzero"></path><path stroke="#274e13" stroke-width="2.0" stroke-linejoin="round" stroke-linecap="butt" d="m856.7008 279.021l6.5511475 -0.94488525" fill-rule="evenodd"></path><path fill="#274e13" stroke="#274e13" stroke-width="2.0" stroke-linecap="butt" d="m863.25195 281.37958l9.076233 -3.3034668l-9.076233 -3.3034668z" fill-rule="evenodd"></path><path fill="#000000" fill-opacity="0.0" d="m206.88977 533.6798l94.55118 0l0 33.700745l-94.55118 0z" fill-rule="nonzero"></path><path fill="#000000" d="m220.81165 559.57043l0 -12.0l-4.46875 0l0 -1.59375l10.765625 0l0 1.59375l-4.5 0l0 12.0l-1.796875 0zm7.739731 -11.6875l0 -1.90625l1.671875 0l0 1.90625l-1.671875 0zm0 11.6875l0 -9.859375l1.671875 0l0 9.859375l-1.671875 0zm4.129196 0l0 -9.859375l1.5 0l0 1.390625q0.453125 -0.71875 1.21875 -1.15625q0.78125 -0.453125 1.765625 -0.453125q1.09375 0 1.796875 0.453125q0.703125 0.453125 0.984375 1.28125q1.171875 -1.734375 3.046875 -1.734375q1.46875 0 2.25 0.8125q0.796875 0.8125 0.796875 2.5l0 6.765625l-1.671875 0l0 -6.203125q0 -1.0 -0.15625 -1.4375q-0.15625 -0.453125 -0.59375 -0.71875q-0.421875 -0.265625 -1.0 -0.265625q-1.03125 0 -1.71875 0.6875q-0.6875 0.6875 -0.6875 2.21875l0 5.71875l-1.671875 0l0 -6.40625q0 -1.109375 -0.40625 -1.65625q-0.40625 -0.5625 -1.34375 -0.5625q-0.703125 0 -1.3125 0.375q-0.59375 0.359375 -0.859375 1.078125q-0.265625 0.71875 -0.265625 2.0625l0 5.109375l-1.671875 0zm22.290802 -3.171875l1.71875 0.21875q-0.40625 1.5 -1.515625 2.34375q-1.09375 0.828125 -2.8125 0.828125q-2.15625 0 -3.421875 -1.328125q-1.265625 -1.328125 -1.265625 -3.734375q0 -2.484375 1.265625 -3.859375q1.28125 -1.375 3.328125 -1.375q1.984375 0 3.234375 1.34375q1.25 1.34375 1.25 3.796875q0 0.140625 -0.015625 0.4375l-7.34375 0q0.09375 1.625 0.921875 2.484375q0.828125 0.859375 2.0625 0.859375q0.90625 0 1.546875 -0.46875q0.65625 -0.484375 1.046875 -1.546875zm-5.484375 -2.703125l5.5 0q-0.109375 -1.234375 -0.625 -1.859375q-0.796875 -0.96875 -2.078125 -0.96875q-1.140625 0 -1.9375 0.78125q-0.78125 0.765625 -0.859375 2.046875z" fill-rule="nonzero"></path><path fill="#000000" fill-opacity="0.0" d="m653.45667 533.6798l94.55121 0l0 33.700745l-94.55121 0z" fill-rule="nonzero"></path><path fill="#000000" d="m667.37854 559.57043l0 -12.0l-4.46875 0l0 -1.59375l10.765625 0l0 1.59375l-4.5 0l0 12.0l-1.796875 0zm7.739746 -11.6875l0 -1.90625l1.671875 0l0 1.90625l-1.671875 0zm0 11.6875l0 -9.859375l1.671875 0l0 9.859375l-1.671875 0zm4.1292114 0l0 -9.859375l1.5 0l0 1.390625q0.453125 -0.71875 1.21875 -1.15625q0.78125 -0.453125 1.765625 -0.453125q1.09375 0 1.796875 0.453125q0.703125 0.453125 0.984375 1.28125q1.171875 -1.734375 3.046875 -1.734375q1.46875 0 2.25 0.8125q0.796875 0.8125 0.796875 2.5l0 6.765625l-1.671875 0l0 -6.203125q0 -1.0 -0.15625 -1.4375q-0.15625 -0.453125 -0.59375 -0.71875q-0.421875 -0.265625 -1.0 -0.265625q-1.03125 0 -1.71875 0.6875q-0.6875 0.6875 -0.6875 2.21875l0 5.71875l-1.671875 0l0 -6.40625q0 -1.109375 -0.40625 -1.65625q-0.40625 -0.5625 -1.34375 -0.5625q-0.703125 0 -1.3125 0.375q-0.59375 0.359375 -0.859375 1.078125q-0.265625 0.71875 -0.265625 2.0625l0 5.109375l-1.671875 0zm22.290771 -3.171875l1.71875 0.21875q-0.40625 1.5 -1.515625 2.34375q-1.09375 0.828125 -2.8125 0.828125q-2.15625 0 -3.421875 -1.328125q-1.265625 -1.328125 -1.265625 -3.734375q0 -2.484375 1.265625 -3.859375q1.28125 -1.375 3.328125 -1.375q1.984375 0 3.234375 1.34375q1.25 1.34375 1.25 3.796875q0 0.140625 -0.015625 0.4375l-7.34375 0q0.09375 1.625 0.921875 2.484375q0.828125 0.859375 2.0625 0.859375q0.90625 0 1.546875 -0.46875q0.65625 -0.484375 1.046875 -1.546875zm-5.484375 -2.703125l5.5 0q-0.109375 -1.234375 -0.625 -1.859375q-0.796875 -0.96875 -2.078125 -0.96875q-1.140625 0 -1.9375 0.78125q-0.78125 0.765625 -0.859375 2.046875z" fill-rule="nonzero"></path><path fill="#000000" fill-opacity="0.0" d="m76.808395 454.79004l0 -94.55118l25.637802 0l0 94.55118z" fill-rule="nonzero"></path><path fill="#000000" d="m97.933395 434.61816l0.453125 -1.796875q2.21875 0.5625 3.390625 2.03125q1.15625 1.46875 1.15625 3.59375q0 2.203125 -0.890625 3.578125q-0.90625 1.375 -2.59375 2.09375q-1.703125 0.71875 -3.65625 0.71875q-2.125 0 -3.703125 -0.796875q-1.578125 -0.8125 -2.390625 -2.3125q-0.828125 -1.5 -0.828125 -3.296875q0 -2.046875 1.046875 -3.4375q1.03125 -1.390625 2.90625 -1.9375l0.421875 1.765625q-1.484375 0.46875 -2.15625 1.375q-0.6875 0.90625 -0.6875 2.265625q0 1.5625 0.75 2.625q0.75 1.046875 2.03125 1.484375q1.265625 0.421875 2.609375 0.421875q1.734375 0 3.03125 -0.5q1.28125 -0.515625 1.921875 -1.578125q0.640625 -1.078125 0.640625 -2.3125q0 -1.515625 -0.859375 -2.5625q-0.875 -1.046875 -2.59375 -1.421875zm4.765625 -3.5510864l-13.59375 0l0 -1.671875l4.875 0q-1.359375 -1.171875 -1.359375 -2.953125q0 -1.09375 0.4375 -1.890625q0.421875 -0.8125 1.1875 -1.15625q0.765625 -0.359375 2.203125 -0.359375l6.25 0l0 1.671875l-6.25 0q-1.25 0 -1.8125 0.546875q-0.578125 0.546875 -0.578125 1.53125q0 0.75 0.390625 1.40625q0.375 0.640625 1.046875 0.921875q0.65625 0.28125 1.8125 0.28125l5.390625 0l0 1.671875zm-1.21875 -16.813202q0.796875 0.9375 1.125 1.796875q0.3125 0.859375 0.3125 1.84375q0 1.609375 -0.78125 2.484375q-0.796875 0.875 -2.03125 0.875q-0.734375 0 -1.328125 -0.328125q-0.59375 -0.328125 -0.953125 -0.859375q-0.359375 -0.53125 -0.546875 -1.203125q-0.140625 -0.5 -0.25 -1.484375q-0.25 -2.03125 -0.578125 -2.984375q-0.34375 0 -0.4375 0q-1.015625 0 -1.4375 0.46875q-0.5625 0.640625 -0.5625 1.90625q0 1.171875 0.40625 1.734375q0.40625 0.5625 1.46875 0.828125l-0.234375 1.640625q-1.046875 -0.234375 -1.6875 -0.734375q-0.640625 -0.515625 -0.984375 -1.46875q-0.359375 -0.96875 -0.359375 -2.25q0 -1.265625 0.296875 -2.046875q0.296875 -0.78125 0.75 -1.15625q0.453125 -0.375 1.140625 -0.515625q0.421875 -0.09375 1.53125 -0.09375l2.234375 0q2.328125 0 2.953125 -0.09375q0.609375 -0.109375 1.171875 -0.4375l0 1.75q-0.515625 0.265625 -1.21875 0.328125zm-3.71875 0.140625q0.359375 0.90625 0.625 2.734375q0.140625 1.03125 0.328125 1.453125q0.1875 0.421875 0.546875 0.65625q0.359375 0.234375 0.796875 0.234375q0.671875 0 1.125 -0.5q0.4375 -0.515625 0.4375 -1.484375q0 -0.96875 -0.421875 -1.71875q-0.4375 -0.75 -1.15625 -1.109375q-0.578125 -0.265625 -1.671875 -0.265625l-0.609375 0zm4.9375 -4.0788574l-9.859375 0l0 -1.5l1.40625 0q-1.625 -1.09375 -1.625 -3.140625q0 -0.890625 0.328125 -1.640625q0.3125 -0.75 0.84375 -1.109375q0.515625 -0.375 1.21875 -0.53125q0.46875 -0.09375 1.625 -0.09375l6.0625 0l0 1.671875l-6.0 0q-1.015625 0 -1.515625 0.203125q-0.515625 0.1875 -0.8125 0.6875q-0.296875 0.5 -0.296875 1.171875q0 1.0625 0.671875 1.84375q0.671875 0.765625 2.578125 0.765625l5.375 0l0 1.671875zm0.8125 -10.078827l0.25 -1.609375q0.75 -0.109375 1.09375 -0.578125q0.453125 -0.609375 0.453125 -1.6875q0 -1.171875 -0.46875 -1.796875q-0.453125 -0.625 -1.28125 -0.859375q-0.515625 -0.125 -2.15625 -0.109375q1.296875 1.09375 1.296875 2.71875q0 2.03125 -1.46875 3.15625q-1.46875 1.109375 -3.515625 1.109375q-1.40625 0 -2.59375 -0.515625q-1.203125 -0.515625 -1.84375 -1.484375q-0.65625 -0.96875 -0.65625 -2.265625q0 -1.75 1.40625 -2.875l-1.1875 0l0 -1.546875l8.515625 0q2.3125 0 3.265625 0.46875q0.96875 0.46875 1.515625 1.484375q0.5625 1.015625 0.5625 2.5q0 1.765625 -0.796875 2.859375q-0.796875 1.078125 -2.390625 1.03125zm-5.921875 -1.375q1.953125 0 2.84375 -0.765625q0.890625 -0.78125 0.890625 -1.9375q0 -1.140625 -0.890625 -1.921875q-0.890625 -0.78125 -2.78125 -0.78125q-1.8125 0 -2.71875 0.8125q-0.921875 0.796875 -0.921875 1.921875q0 1.109375 0.90625 1.890625q0.890625 0.78125 2.671875 0.78125zm1.9375 -16.047607l0.21875 -1.71875q1.5 0.40625 2.34375 1.515625q0.828125 1.09375 0.828125 2.8125q0 2.15625 -1.328125 3.421875q-1.328125 1.265625 -3.734375 1.265625q-2.484375 0 -3.859375 -1.265625q-1.375 -1.28125 -1.375 -3.328125q0 -1.984375 1.34375 -3.234375q1.34375 -1.25 3.796875 -1.25q0.140625 0 0.4375 0.015625l0 7.34375q1.625 -0.09375 2.484375 -0.921875q0.859375 -0.828125 0.859375 -2.0625q0 -0.90625 -0.46875 -1.546875q-0.484375 -0.65625 -1.546875 -1.046875zm-2.703125 5.484375l0 -5.5q-1.234375 0.109375 -1.859375 0.625q-0.96875 0.796875 -0.96875 2.078125q0 1.140625 0.78125 1.9375q0.765625 0.78125 2.046875 0.859375z" fill-rule="nonzero"></path><path fill="#000000" fill-opacity="0.0" d="m523.1732 454.79004l0 -94.55118l25.637817 0l0 94.55118z" fill-rule="nonzero"></path><path fill="#000000" d="m544.2982 434.61816l0.453125 -1.796875q2.21875 0.5625 3.390625 2.03125q1.15625 1.46875 1.15625 3.59375q0 2.203125 -0.890625 3.578125q-0.90625 1.375 -2.59375 2.09375q-1.703125 0.71875 -3.65625 0.71875q-2.125 0 -3.703125 -0.796875q-1.578125 -0.8125 -2.390625 -2.3125q-0.828125 -1.5 -0.828125 -3.296875q0 -2.046875 1.046875 -3.4375q1.03125 -1.390625 2.90625 -1.9375l0.421875 1.765625q-1.484375 0.46875 -2.15625 1.375q-0.6875 0.90625 -0.6875 2.265625q0 1.5625 0.75 2.625q0.75 1.046875 2.03125 1.484375q1.265625 0.421875 2.609375 0.421875q1.734375 0 3.03125 -0.5q1.28125 -0.515625 1.921875 -1.578125q0.640625 -1.078125 0.640625 -2.3125q0 -1.515625 -0.859375 -2.5625q-0.875 -1.046875 -2.59375 -1.421875zm4.765625 -3.5510864l-13.59375 0l0 -1.671875l4.875 0q-1.359375 -1.171875 -1.359375 -2.953125q0 -1.09375 0.4375 -1.890625q0.421875 -0.8125 1.1875 -1.15625q0.765625 -0.359375 2.203125 -0.359375l6.25 0l0 1.671875l-6.25 0q-1.25 0 -1.8125 0.546875q-0.578125 0.546875 -0.578125 1.53125q0 0.75 0.390625 1.40625q0.375 0.640625 1.046875 0.921875q0.65625 0.28125 1.8125 0.28125l5.390625 0l0 1.671875zm-1.21875 -16.813202q0.796875 0.9375 1.125 1.796875q0.3125 0.859375 0.3125 1.84375q0 1.609375 -0.78125 2.484375q-0.796875 0.875 -2.03125 0.875q-0.734375 0 -1.328125 -0.328125q-0.59375 -0.328125 -0.953125 -0.859375q-0.359375 -0.53125 -0.546875 -1.203125q-0.140625 -0.5 -0.25 -1.484375q-0.25 -2.03125 -0.578125 -2.984375q-0.34375 0 -0.4375 0q-1.015625 0 -1.4375 0.46875q-0.5625 0.640625 -0.5625 1.90625q0 1.171875 0.40625 1.734375q0.40625 0.5625 1.46875 0.828125l-0.234375 1.640625q-1.046875 -0.234375 -1.6875 -0.734375q-0.640625 -0.515625 -0.984375 -1.46875q-0.359375 -0.96875 -0.359375 -2.25q0 -1.265625 0.296875 -2.046875q0.296875 -0.78125 0.75 -1.15625q0.453125 -0.375 1.140625 -0.515625q0.421875 -0.09375 1.53125 -0.09375l2.234375 0q2.328125 0 2.953125 -0.09375q0.609375 -0.109375 1.171875 -0.4375l0 1.75q-0.515625 0.265625 -1.21875 0.328125zm-3.71875 0.140625q0.359375 0.90625 0.625 2.734375q0.140625 1.03125 0.328125 1.453125q0.1875 0.421875 0.546875 0.65625q0.359375 0.234375 0.796875 0.234375q0.671875 0 1.125 -0.5q0.4375 -0.515625 0.4375 -1.484375q0 -0.96875 -0.421875 -1.71875q-0.4375 -0.75 -1.15625 -1.109375q-0.578125 -0.265625 -1.671875 -0.265625l-0.609375 0zm4.9375 -4.0788574l-9.859375 0l0 -1.5l1.40625 0q-1.625 -1.09375 -1.625 -3.140625q0 -0.890625 0.328125 -1.640625q0.3125 -0.75 0.84375 -1.109375q0.515625 -0.375 1.21875 -0.53125q0.46875 -0.09375 1.625 -0.09375l6.0625 0l0 1.671875l-6.0 0q-1.015625 0 -1.515625 0.203125q-0.515625 0.1875 -0.8125 0.6875q-0.296875 0.5 -0.296875 1.171875q0 1.0625 0.671875 1.84375q0.671875 0.765625 2.578125 0.765625l5.375 0l0 1.671875zm0.8125 -10.078827l0.25 -1.609375q0.75 -0.109375 1.09375 -0.578125q0.453125 -0.609375 0.453125 -1.6875q0 -1.171875 -0.46875 -1.796875q-0.453125 -0.625 -1.28125 -0.859375q-0.515625 -0.125 -2.15625 -0.109375q1.296875 1.09375 1.296875 2.71875q0 2.03125 -1.46875 3.15625q-1.46875 1.109375 -3.515625 1.109375q-1.40625 0 -2.59375 -0.515625q-1.203125 -0.515625 -1.84375 -1.484375q-0.65625 -0.96875 -0.65625 -2.265625q0 -1.75 1.40625 -2.875l-1.1875 0l0 -1.546875l8.515625 0q2.3125 0 3.265625 0.46875q0.96875 0.46875 1.515625 1.484375q0.5625 1.015625 0.5625 2.5q0 1.765625 -0.796875 2.859375q-0.796875 1.078125 -2.390625 1.03125zm-5.921875 -1.375q1.953125 0 2.84375 -0.765625q0.890625 -0.78125 0.890625 -1.9375q0 -1.140625 -0.890625 -1.921875q-0.890625 -0.78125 -2.78125 -0.78125q-1.8125 0 -2.71875 0.8125q-0.921875 0.796875 -0.921875 1.921875q0 1.109375 0.90625 1.890625q0.890625 0.78125 2.671875 0.78125zm1.9375 -16.047607l0.21875 -1.71875q1.5 0.40625 2.34375 1.515625q0.828125 1.09375 0.828125 2.8125q0 2.15625 -1.328125 3.421875q-1.328125 1.265625 -3.734375 1.265625q-2.484375 0 -3.859375 -1.265625q-1.375 -1.28125 -1.375 -3.328125q0 -1.984375 1.34375 -3.234375q1.34375 -1.25 3.796875 -1.25q0.140625 0 0.4375 0.015625l0 7.34375q1.625 -0.09375 2.484375 -0.921875q0.859375 -0.828125 0.859375 -2.0625q0 -0.90625 -0.46875 -1.546875q-0.484375 -0.65625 -1.546875 -1.046875zm-2.703125 5.484375l0 -5.5q-1.234375 0.109375 -1.859375 0.625q-0.96875 0.796875 -0.96875 2.078125q0 1.140625 0.78125 1.9375q0.765625 0.78125 2.046875 0.859375z" fill-rule="nonzero"></path><path fill="#000000" fill-opacity="0.0" d="m112.28215 533.6798l0 -262.17325" fill-rule="nonzero"></path><path stroke="#000000" stroke-width="4.0" stroke-linejoin="round" stroke-linecap="butt" d="m112.28215 533.6798l0 -238.17325" fill-rule="evenodd"></path><path fill="#000000" stroke="#000000" stroke-width="4.0" stroke-linecap="butt" d="m118.889084 295.50656l-6.6069336 -18.152405l-6.606926 18.152405z" fill-rule="evenodd"></path><path fill="#000000" fill-opacity="0.0" d="m558.03284 532.5302l0 -262.17328" fill-rule="nonzero"></path><path stroke="#000000" stroke-width="4.0" stroke-linejoin="round" stroke-linecap="butt" d="m558.03284 532.5302l0 -238.17325" fill-rule="evenodd"></path><path fill="#000000" stroke="#000000" stroke-width="4.0" stroke-linecap="butt" d="m564.6397 294.35696l-6.6068726 -18.152405l-6.6069336 18.152405z" fill-rule="evenodd"></path></g></svg>

