<?xml version="1.0" standalone="yes"?>

<svg version="1.1" viewBox="0.0 0.0 960.0 720.0" fill="none" stroke="none" stroke-linecap="square" stroke-miterlimit="10" xmlns="http://www.w3.org/2000/svg" xmlns:xlink="http://www.w3.org/1999/xlink"><clipPath id="p.0"><path d="m0 0l960.0 0l0 720.0l-960.0 0l0 -720.0z" clip-rule="nonzero"></path></clipPath><g clip-path="url(#p.0)"><path fill="#ffffff" d="m0 0l960.0 0l0 720.0l-960.0 0z" fill-rule="nonzero"></path><path fill="#000000" fill-opacity="0.0" d="m288.0 50.902885l384.0 0l0 48.0l-384.0 0z" fill-rule="nonzero"></path><path fill="#000000" d="m390.33984 86.809135l5.625 -0.546875q0.5 2.828125 2.046875 4.15625q1.5625 1.328125 4.203125 1.328125q2.78125 0 4.203125 -1.171875q1.421875 -1.1875 1.421875 -2.78125q0 -1.015625 -0.609375 -1.71875q-0.59375 -0.71875 -2.078125 -1.25q-1.015625 -0.34375 -4.625 -1.25q-4.640625 -1.140625 -6.515625 -2.828125q-2.640625 -2.359375 -2.640625 -5.765625q0 -2.1875 1.234375 -4.078125q1.25 -1.90625 3.578125 -2.90625q2.328125 -1.0 5.640625 -1.0q5.390625 0 8.109375 2.375q2.71875 2.359375 2.859375 6.296875l-5.78125 0.25q-0.375 -2.203125 -1.59375 -3.171875q-1.21875 -0.96875 -3.65625 -0.96875q-2.515625 0 -3.953125 1.046875q-0.90625 0.65625 -0.90625 1.765625q0 1.015625 0.859375 1.75q1.09375 0.90625 5.3125 1.90625q4.21875 1.0 6.234375 2.0625q2.015625 1.0625 3.15625 2.90625q1.15625 1.84375 1.15625 4.5625q0 2.46875 -1.375 4.625q-1.359375 2.140625 -3.859375 3.1875q-2.5 1.046875 -6.234375 1.046875q-5.4375 0 -8.34375 -2.515625q-2.90625 -2.515625 -3.46875 -7.3125zm34.585938 9.3125l0 -23.796875l-8.5 0l0 -4.84375l22.75 0l0 4.84375l-8.46875 0l0 23.796875l-5.78125 0zm43.808594 0l-6.296875 0l-2.5 -6.5l-11.4375 0l-2.359375 6.5l-6.140625 0l11.15625 -28.640625l6.109375 0l11.46875 28.640625zm-10.640625 -11.328125l-3.953125 -10.625l-3.859375 10.625l7.8125 0zm27.027344 0.796875l0 -4.828125l12.453125 0l0 11.40625q-1.8125 1.765625 -5.265625 3.109375q-3.4375 1.328125 -6.96875 1.328125q-4.5 0 -7.84375 -1.875q-3.328125 -1.890625 -5.015625 -5.390625q-1.671875 -3.515625 -1.671875 -7.640625q0 -4.46875 1.875 -7.9375q1.875 -3.484375 5.484375 -5.34375q2.75 -1.421875 6.859375 -1.421875q5.328125 0 8.328125 2.234375q3.0 2.234375 3.859375 6.1875l-5.75 1.078125q-0.609375 -2.109375 -2.28125 -3.328125q-1.65625 -1.234375 -4.15625 -1.234375q-3.796875 0 -6.03125 2.40625q-2.234375 2.40625 -2.234375 7.125q0 5.109375 2.265625 7.65625q2.265625 2.546875 5.9375 2.546875q1.8125 0 3.640625 -0.703125q1.828125 -0.71875 3.140625 -1.734375l0 -3.640625l-6.625 0zm17.613281 10.53125l0 -28.640625l5.78125 0l0 28.640625l-5.78125 0zm11.347656 0l0 -28.640625l5.625 0l11.71875 19.125l0 -19.125l5.375 0l0 28.640625l-5.796875 0l-11.546875 -18.671875l0 18.671875l-5.375 0zm42.152344 -10.53125l0 -4.828125l12.453125 0l0 11.40625q-1.8125 1.765625 -5.265625 3.109375q-3.4375 1.328125 -6.96875 1.328125q-4.5 0 -7.84375 -1.875q-3.328125 -1.890625 -5.015625 -5.390625q-1.671875 -3.515625 -1.671875 -7.640625q0 -4.46875 1.875 -7.9375q1.875 -3.484375 5.484375 -5.34375q2.75 -1.421875 6.859375 -1.421875q5.328125 0 8.328125 2.234375q3.0 2.234375 3.859375 6.1875l-5.75 1.078125q-0.609375 -2.109375 -2.28125 -3.328125q-1.65625 -1.234375 -4.15625 -1.234375q-3.796875 0 -6.03125 2.40625q-2.234375 2.40625 -2.234375 7.125q0 5.109375 2.265625 7.65625q2.265625 2.546875 5.9375 2.546875q1.8125 0 3.640625 -0.703125q1.828125 -0.71875 3.140625 -1.734375l0 -3.640625l-6.625 0z" fill-rule="nonzero"></path><path fill="#3d85c6" d="m112.25197 249.98688l123.1181 0l0 82.39371l-123.1181 0z" fill-rule="nonzero"></path><path stroke="#000000" stroke-width="2.0" stroke-linejoin="round" stroke-linecap="butt" d="m112.25197 249.98688l123.1181 0l0 82.39371l-123.1181 0z" fill-rule="nonzero"></path><path fill="#000000" d="m128.87367 285.28528l3.96875 0q1.34375 0 2.046875 0.203125q0.9375 0.28125 1.609375 1.0q0.671875 0.703125 1.015625 1.734375q0.359375 1.015625 0.359375 2.53125q0 1.328125 -0.328125 2.28125q-0.390625 1.171875 -1.140625 1.90625q-0.5625 0.546875 -1.53125 0.84375q-0.71875 0.234375 -1.921875 0.234375l-4.078125 0l0 -10.734375zm2.171875 1.8125l0 7.109375l1.625 0q0.90625 0 1.3125 -0.09375q0.515625 -0.140625 0.859375 -0.453125q0.359375 -0.3125 0.578125 -1.03125q0.21875 -0.71875 0.21875 -1.96875q0 -1.25 -0.21875 -1.90625q-0.21875 -0.671875 -0.625 -1.046875q-0.390625 -0.375 -1.0 -0.5q-0.453125 -0.109375 -1.78125 -0.109375l-0.96875 0zm12.912399 6.453125l2.046875 0.34375q-0.390625 1.125 -1.25 1.71875q-0.84375 0.578125 -2.125 0.578125q-2.03125 0 -3.0 -1.328125q-0.78125 -1.0625 -0.78125 -2.671875q0 -1.9375 1.015625 -3.03125q1.015625 -1.09375 2.5625 -1.09375q1.734375 0 2.734375 1.15625q1.0 1.140625 0.953125 3.5l-5.15625 0q0.03125 0.921875 0.5 1.4375q0.484375 0.5 1.1875 0.5q0.484375 0 0.8125 -0.265625q0.328125 -0.265625 0.5 -0.84375zm0.125 -2.09375q-0.03125 -0.890625 -0.46875 -1.34375q-0.4375 -0.46875 -1.0625 -0.46875q-0.671875 0 -1.125 0.484375q-0.4375 0.5 -0.421875 1.328125l3.078125 0zm5.666733 4.5625l-3.140625 -7.78125l2.15625 0l1.46875 3.96875l0.421875 1.328125q0.171875 -0.5 0.21875 -0.671875q0.109375 -0.328125 0.21875 -0.65625l1.484375 -3.96875l2.109375 0l-3.09375 7.78125l-1.84375 0zm10.510483 -2.46875l2.046875 0.34375q-0.390625 1.125 -1.25 1.71875q-0.84375 0.578125 -2.125 0.578125q-2.03125 0 -3.0 -1.328125q-0.78125 -1.0625 -0.78125 -2.671875q0 -1.9375 1.015625 -3.03125q1.015625 -1.09375 2.5625 -1.09375q1.734375 0 2.734375 1.15625q1.0 1.140625 0.953125 3.5l-5.15625 0q0.03125 0.921875 0.5 1.4375q0.484375 0.5 1.1875 0.5q0.484375 0 0.8125 -0.265625q0.328125 -0.265625 0.5 -0.84375zm0.125 -2.09375q-0.03125 -0.890625 -0.46875 -1.34375q-0.4375 -0.46875 -1.0625 -0.46875q-0.671875 0 -1.125 0.484375q-0.4375 0.5 -0.421875 1.328125l3.078125 0zm3.5261078 4.5625l0 -10.734375l2.0625 0l0 10.734375l-2.0625 0zm3.5876007 -4.0q0 -1.03125 0.5 -1.984375q0.515625 -0.953125 1.4375 -1.453125q0.9375 -0.515625 2.078125 -0.515625q1.765625 0 2.890625 1.15625q1.125 1.140625 1.125 2.890625q0 1.765625 -1.140625 2.921875q-1.140625 1.15625 -2.859375 1.15625q-1.078125 0 -2.046875 -0.484375q-0.96875 -0.484375 -1.484375 -1.40625q-0.5 -0.9375 -0.5 -2.28125zm2.109375 0.109375q0 1.15625 0.546875 1.78125q0.5625 0.609375 1.359375 0.609375q0.8125 0 1.359375 -0.609375q0.546875 -0.625 0.546875 -1.796875q0 -1.140625 -0.546875 -1.75q-0.546875 -0.625 -1.359375 -0.625q-0.796875 0 -1.359375 0.625q-0.546875 0.609375 -0.546875 1.765625zm7.2651215 -3.890625l1.921875 0l0 1.140625q0.375 -0.578125 1.0 -0.9375q0.640625 -0.375 1.421875 -0.375q1.359375 0 2.296875 1.0625q0.953125 1.0625 0.953125 2.953125q0 1.953125 -0.953125 3.03125q-0.953125 1.078125 -2.3125 1.078125q-0.640625 0 -1.171875 -0.25q-0.515625 -0.265625 -1.09375 -0.875l0 3.90625l-2.0625 0l0 -10.734375zm2.03125 3.765625q0 1.3125 0.515625 1.9375q0.53125 0.625 1.28125 0.625q0.71875 0 1.1875 -0.578125q0.484375 -0.578125 0.484375 -1.890625q0 -1.21875 -0.5 -1.8125q-0.484375 -0.59375 -1.203125 -0.59375q-0.765625 0 -1.265625 0.59375q-0.5 0.578125 -0.5 1.71875zm6.8276215 -3.765625l1.890625 0l0 1.0625q1.03125 -1.234375 2.4375 -1.234375q0.734375 0 1.28125 0.3125q0.5625 0.296875 0.90625 0.921875q0.515625 -0.625 1.109375 -0.921875q0.59375 -0.3125 1.265625 -0.3125q0.859375 0 1.453125 0.34375q0.59375 0.34375 0.890625 1.03125q0.203125 0.484375 0.203125 1.609375l0 4.96875l-2.046875 0l0 -4.453125q0 -1.15625 -0.21875 -1.484375q-0.28125 -0.4375 -0.875 -0.4375q-0.4375 0 -0.828125 0.265625q-0.375 0.25 -0.546875 0.765625q-0.15625 0.515625 -0.15625 1.609375l0 3.734375l-2.0625 0l0 -4.265625q0 -1.125 -0.109375 -1.453125q-0.109375 -0.34375 -0.34375 -0.5q-0.234375 -0.15625 -0.625 -0.15625q-0.46875 0 -0.859375 0.265625q-0.375 0.25 -0.546875 0.734375q-0.15625 0.46875 -0.15625 1.59375l0 3.78125l-2.0625 0l0 -7.78125zm17.688004 5.3125l2.046875 0.34375q-0.390625 1.125 -1.25 1.71875q-0.84375 0.578125 -2.125 0.578125q-2.03125 0 -3.0 -1.328125q-0.78125 -1.0625 -0.78125 -2.671875q0 -1.9375 1.015625 -3.03125q1.015625 -1.09375 2.5625 -1.09375q1.734375 0 2.734375 1.15625q1.0 1.140625 0.953125 3.5l-5.15625 0q0.03125 0.921875 0.5 1.4375q0.484375 0.5 1.1875 0.5q0.484375 0 0.8125 -0.265625q0.328125 -0.265625 0.5 -0.84375zm0.125 -2.09375q-0.03125 -0.890625 -0.46875 -1.34375q-0.4375 -0.46875 -1.0625 -0.46875q-0.671875 0 -1.125 0.484375q-0.4375 0.5 -0.421875 1.328125l3.078125 0zm10.604233 4.5625l-2.0625 0l0 -3.96875q0 -1.265625 -0.140625 -1.625q-0.125 -0.375 -0.421875 -0.578125q-0.296875 -0.203125 -0.71875 -0.203125q-0.53125 0 -0.953125 0.296875q-0.421875 0.28125 -0.578125 0.765625q-0.15625 0.484375 -0.15625 1.796875l0 3.515625l-2.0625 0l0 -7.78125l1.90625 0l0 1.140625q1.015625 -1.3125 2.5625 -1.3125q0.6875 0 1.25 0.25q0.5625 0.234375 0.84375 0.625q0.296875 0.375 0.40625 0.859375q0.125 0.484375 0.125 1.390625l0 4.828125zm5.4369965 -7.78125l0 1.640625l-1.40625 0l0 3.140625q0 0.953125 0.03125 1.109375q0.046875 0.15625 0.1875 0.265625q0.15625 0.09375 0.359375 0.09375q0.28125 0 0.828125 -0.203125l0.171875 1.609375q-0.71875 0.296875 -1.625 0.296875q-0.5625 0 -1.015625 -0.1875q-0.4375 -0.1875 -0.65625 -0.484375q-0.203125 -0.296875 -0.28125 -0.796875q-0.0625 -0.359375 -0.0625 -1.453125l0 -3.390625l-0.9375 0l0 -1.640625l0.9375 0l0 -1.546875l2.0625 -1.203125l0 2.75l1.40625 0z" fill-rule="nonzero"></path><path fill="#3d85c6" d="m520.50385 249.98688l123.1181 0l0 82.39371l-123.1181 0z" fill-rule="nonzero"></path><path stroke="#000000" stroke-width="2.0" stroke-linejoin="round" stroke-linecap="butt" d="m520.50385 249.98688l123.1181 0l0 82.39371l-123.1181 0z" fill-rule="nonzero"></path><path fill="#000000" d="m544.48364 296.01965l0 -10.734375l3.484375 0q1.96875 0 2.578125 0.15625q0.921875 0.25 1.53125 1.0625q0.625 0.796875 0.625 2.078125q0 0.984375 -0.359375 1.671875q-0.359375 0.671875 -0.90625 1.0625q-0.546875 0.375 -1.125 0.5q-0.78125 0.15625 -2.25 0.15625l-1.40625 0l0 4.046875l-2.171875 0zm2.171875 -8.921875l0 3.046875l1.1875 0q1.28125 0 1.703125 -0.171875q0.4375 -0.171875 0.671875 -0.515625q0.25 -0.359375 0.25 -0.84375q0 -0.578125 -0.34375 -0.953125q-0.34375 -0.390625 -0.875 -0.484375q-0.375 -0.078125 -1.546875 -0.078125l-1.046875 0zm9.556824 8.921875l-2.0625 0l0 -7.78125l1.921875 0l0 1.109375q0.484375 -0.78125 0.875 -1.03125q0.390625 -0.25 0.890625 -0.25q0.703125 0 1.359375 0.390625l-0.640625 1.796875q-0.515625 -0.34375 -0.96875 -0.34375q-0.4375 0 -0.734375 0.25q-0.296875 0.234375 -0.46875 0.859375q-0.171875 0.609375 -0.171875 2.59375l0 2.40625zm3.2504883 -4.0q0 -1.03125 0.5 -1.984375q0.515625 -0.953125 1.4375 -1.453125q0.9375 -0.515625 2.078125 -0.515625q1.765625 0 2.890625 1.15625q1.125 1.140625 1.125 2.890625q0 1.765625 -1.140625 2.921875q-1.140625 1.15625 -2.859375 1.15625q-1.078125 0 -2.046875 -0.484375q-0.96875 -0.484375 -1.484375 -1.40625q-0.5 -0.9375 -0.5 -2.28125zm2.109375 0.109375q0 1.15625 0.546875 1.78125q0.5625 0.609375 1.359375 0.609375q0.8125 0 1.359375 -0.609375q0.546875 -0.625 0.546875 -1.796875q0 -1.140625 -0.546875 -1.75q-0.546875 -0.625 -1.359375 -0.625q-0.796875 0 -1.359375 0.625q-0.546875 0.609375 -0.546875 1.765625zm14.452637 3.890625l-1.90625 0l0 -1.140625q-0.46875 0.671875 -1.125 1.0q-0.640625 0.3125 -1.296875 0.3125q-1.34375 0 -2.3125 -1.078125q-0.953125 -1.078125 -0.953125 -3.015625q0 -1.96875 0.921875 -3.0q0.9375 -1.03125 2.359375 -1.03125q1.3125 0 2.265625 1.078125l0 -3.859375l2.046875 0l0 10.734375zm-5.484375 -4.0625q0 1.25 0.34375 1.8125q0.5 0.796875 1.390625 0.796875q0.703125 0 1.203125 -0.59375q0.5 -0.609375 0.5 -1.8125q0 -1.34375 -0.484375 -1.921875q-0.484375 -0.59375 -1.234375 -0.59375q-0.734375 0 -1.234375 0.578125q-0.484375 0.578125 -0.484375 1.734375zm12.437012 4.0625l0 -1.171875q-0.4375 0.625 -1.125 0.984375q-0.6875 0.359375 -1.453125 0.359375q-0.796875 0 -1.421875 -0.34375q-0.609375 -0.34375 -0.890625 -0.96875q-0.28125 -0.625 -0.28125 -1.71875l0 -4.921875l2.0625 0l0 3.578125q0 1.640625 0.109375 2.015625q0.109375 0.359375 0.40625 0.578125q0.3125 0.21875 0.765625 0.21875q0.53125 0 0.953125 -0.28125q0.421875 -0.296875 0.5625 -0.71875q0.15625 -0.4375 0.15625 -2.109375l0 -3.28125l2.0625 0l0 7.78125l-1.90625 0zm10.608887 -5.484375l-2.03125 0.375q-0.09375 -0.609375 -0.46875 -0.90625q-0.359375 -0.3125 -0.9375 -0.3125q-0.765625 0 -1.234375 0.53125q-0.453125 0.515625 -0.453125 1.765625q0 1.390625 0.46875 1.96875q0.46875 0.5625 1.25 0.5625q0.59375 0 0.953125 -0.328125q0.375 -0.34375 0.53125 -1.15625l2.03125 0.34375q-0.328125 1.390625 -1.21875 2.109375q-0.890625 0.703125 -2.390625 0.703125q-1.703125 0 -2.71875 -1.078125q-1.015625 -1.078125 -1.015625 -2.96875q0 -1.9375 1.015625 -3.0q1.015625 -1.078125 2.75 -1.078125q1.421875 0 2.265625 0.609375q0.84375 0.609375 1.203125 1.859375zm4.932312 -2.296875l0 1.640625l-1.40625 0l0 3.140625q0 0.953125 0.03125 1.109375q0.046875 0.15625 0.1875 0.265625q0.15625 0.09375 0.359375 0.09375q0.28125 0 0.828125 -0.203125l0.171875 1.609375q-0.71875 0.296875 -1.625 0.296875q-0.5625 0 -1.015625 -0.1875q-0.4375 -0.1875 -0.65625 -0.484375q-0.203125 -0.296875 -0.28125 -0.796875q-0.0625 -0.359375 -0.0625 -1.453125l0 -3.390625l-0.9375 0l0 -1.640625l0.9375 0l0 -1.546875l2.0625 -1.203125l0 2.75l1.40625 0zm1.3181763 -1.046875l0 -1.90625l2.0625 0l0 1.90625l-2.0625 0zm0 8.828125l0 -7.78125l2.0625 0l0 7.78125l-2.0625 0zm3.5875854 -4.0q0 -1.03125 0.5 -1.984375q0.515625 -0.953125 1.4375 -1.453125q0.9375 -0.515625 2.078125 -0.515625q1.765625 0 2.890625 1.15625q1.125 1.140625 1.125 2.890625q0 1.765625 -1.140625 2.921875q-1.140625 1.15625 -2.859375 1.15625q-1.078125 0 -2.046875 -0.484375q-0.96875 -0.484375 -1.484375 -1.40625q-0.5 -0.9375 -0.5 -2.28125zm2.109375 0.109375q0 1.15625 0.546875 1.78125q0.5625 0.609375 1.359375 0.609375q0.8125 0 1.359375 -0.609375q0.546875 -0.625 0.546875 -1.796875q0 -1.140625 -0.546875 -1.75q-0.546875 -0.625 -1.359375 -0.625q-0.796875 0 -1.359375 0.625q-0.546875 0.609375 -0.546875 1.765625zm14.405762 3.890625l-2.0625 0l0 -3.96875q0 -1.265625 -0.140625 -1.625q-0.125 -0.375 -0.421875 -0.578125q-0.296875 -0.203125 -0.71875 -0.203125q-0.53125 0 -0.953125 0.296875q-0.421875 0.28125 -0.578125 0.765625q-0.15625 0.484375 -0.15625 1.796875l0 3.515625l-2.0625 0l0 -7.78125l1.90625 0l0 1.140625q1.015625 -1.3125 2.5625 -1.3125q0.6875 0 1.25 0.25q0.5625 0.234375 0.84375 0.625q0.296875 0.375 0.40625 0.859375q0.125 0.484375 0.125 1.390625l0 4.828125z" fill-rule="nonzero"></path><path fill="#e06666" d="m316.3779 249.98688l123.1181 0l0 82.39371l-123.1181 0z" fill-rule="nonzero"></path><path stroke="#000000" stroke-width="2.0" stroke-linejoin="round" stroke-linecap="butt" d="m316.3779 249.98688l123.1181 0l0 82.39371l-123.1181 0z" fill-rule="nonzero"></path><path fill="#000000" d="m366.38483 296.01965l0 -8.921875l-3.1875 0l0 -1.8125l8.53125 0l0 1.8125l-3.1875 0l0 8.921875l-2.15625 0zm11.015106 -2.46875l2.046875 0.34375q-0.390625 1.125 -1.25 1.71875q-0.84375 0.578125 -2.125 0.578125q-2.03125 0 -3.0 -1.328125q-0.78125 -1.0625 -0.78125 -2.671875q0 -1.9375 1.015625 -3.03125q1.015625 -1.09375 2.5625 -1.09375q1.734375 0 2.734375 1.15625q1.0 1.140625 0.953125 3.5l-5.15625 0q0.03125 0.921875 0.5 1.4375q0.484375 0.5 1.1875 0.5q0.484375 0 0.8125 -0.265625q0.328125 -0.265625 0.5 -0.84375zm0.125 -2.09375q-0.03125 -0.890625 -0.46875 -1.34375q-0.4375 -0.46875 -1.0625 -0.46875q-0.671875 0 -1.125 0.484375q-0.4375 0.5 -0.421875 1.328125l3.078125 0zm2.807373 2.34375l2.0625 -0.3125q0.125 0.59375 0.53125 0.90625q0.40625 0.3125 1.125 0.3125q0.796875 0 1.203125 -0.296875q0.265625 -0.203125 0.265625 -0.546875q0 -0.234375 -0.140625 -0.390625q-0.15625 -0.140625 -0.6875 -0.265625q-2.484375 -0.546875 -3.15625 -1.0q-0.921875 -0.640625 -0.921875 -1.75q0 -1.015625 0.796875 -1.703125q0.796875 -0.6875 2.46875 -0.6875q1.609375 0 2.375 0.515625q0.78125 0.515625 1.078125 1.546875l-1.953125 0.359375q-0.125 -0.453125 -0.46875 -0.6875q-0.34375 -0.25 -0.984375 -0.25q-0.8125 0 -1.171875 0.21875q-0.234375 0.15625 -0.234375 0.421875q0 0.21875 0.203125 0.375q0.28125 0.203125 1.921875 0.578125q1.65625 0.375 2.296875 0.90625q0.65625 0.5625 0.65625 1.53125q0 1.078125 -0.90625 1.84375q-0.890625 0.765625 -2.640625 0.765625q-1.59375 0 -2.515625 -0.640625q-0.921875 -0.640625 -1.203125 -1.75zm12.432343 -5.5625l0 1.640625l-1.40625 0l0 3.140625q0 0.953125 0.03125 1.109375q0.046875 0.15625 0.1875 0.265625q0.15625 0.09375 0.359375 0.09375q0.28125 0 0.828125 -0.203125l0.171875 1.609375q-0.71875 0.296875 -1.625 0.296875q-0.5625 0 -1.015625 -0.1875q-0.4375 -0.1875 -0.65625 -0.484375q-0.203125 -0.296875 -0.28125 -0.796875q-0.0625 -0.359375 -0.0625 -1.453125l0 -3.390625l-0.9375 0l0 -1.640625l0.9375 0l0 -1.546875l2.0625 -1.203125l0 2.75l1.40625 0z" fill-rule="nonzero"></path><path fill="#cfe2f3" d="m242.85039 285.1286l53.937027 0l0 -6.0551147l12.1102295 12.1102295l-12.1102295 12.11026l0 -6.0551453l-53.937027 0z" fill-rule="nonzero"></path><path stroke="#000000" stroke-width="2.0" stroke-linejoin="round" stroke-linecap="butt" d="m242.85039 285.1286l53.937027 0l0 -6.0551147l12.1102295 12.1102295l-12.1102295 12.11026l0 -6.0551453l-53.937027 0z" fill-rule="nonzero"></path><path fill="#cfe2f3" d="m446.97638 285.1286l53.93701 0l0 -6.0551147l12.1102295 12.1102295l-12.1102295 12.11026l0 -6.0551453l-53.93701 0z" fill-rule="nonzero"></path><path stroke="#000000" stroke-width="2.0" stroke-linejoin="round" stroke-linecap="butt" d="m446.97638 285.1286l53.93701 0l0 -6.0551147l12.1102295 12.1102295l-12.1102295 12.11026l0 -6.0551453l-53.93701 0z" fill-rule="nonzero"></path><path fill="#3d85c6" d="m112.25197 425.15485l123.1181 0l0 82.39371l-123.1181 0z" fill-rule="nonzero"></path><path stroke="#000000" stroke-width="2.0" stroke-linejoin="round" stroke-linecap="butt" d="m112.25197 425.15485l123.1181 0l0 82.39371l-123.1181 0z" fill-rule="nonzero"></path><path fill="#000000" d="m128.87367 460.45328l3.96875 0q1.34375 0 2.046875 0.203125q0.9375 0.28125 1.609375 1.0q0.671875 0.703125 1.015625 1.734375q0.359375 1.015625 0.359375 2.53125q0 1.328125 -0.328125 2.28125q-0.390625 1.171875 -1.140625 1.90625q-0.5625 0.546875 -1.53125 0.84375q-0.71875 0.234375 -1.921875 0.234375l-4.078125 0l0 -10.734375zm2.171875 1.8125l0 7.109375l1.625 0q0.90625 0 1.3125 -0.09375q0.515625 -0.140625 0.859375 -0.453125q0.359375 -0.3125 0.578125 -1.03125q0.21875 -0.71875 0.21875 -1.96875q0 -1.25 -0.21875 -1.90625q-0.21875 -0.671875 -0.625 -1.046875q-0.390625 -0.375 -1.0 -0.5q-0.453125 -0.109375 -1.78125 -0.109375l-0.96875 0zm12.912399 6.453125l2.046875 0.34375q-0.390625 1.125 -1.25 1.71875q-0.84375 0.578125 -2.125 0.578125q-2.03125 0 -3.0 -1.328125q-0.78125 -1.0625 -0.78125 -2.671875q0 -1.9375 1.015625 -3.03125q1.015625 -1.09375 2.5625 -1.09375q1.734375 0 2.734375 1.15625q1.0 1.140625 0.953125 3.5l-5.15625 0q0.03125 0.921875 0.5 1.4375q0.484375 0.5 1.1875 0.5q0.484375 0 0.8125 -0.265625q0.328125 -0.265625 0.5 -0.84375zm0.125 -2.09375q-0.03125 -0.890625 -0.46875 -1.34375q-0.4375 -0.46875 -1.0625 -0.46875q-0.671875 0 -1.125 0.484375q-0.4375 0.5 -0.421875 1.328125l3.078125 0zm5.666733 4.5625l-3.140625 -7.78125l2.15625 0l1.46875 3.96875l0.421875 1.328125q0.171875 -0.5 0.21875 -0.671875q0.109375 -0.328125 0.21875 -0.65625l1.484375 -3.96875l2.109375 0l-3.09375 7.78125l-1.84375 0zm10.510483 -2.46875l2.046875 0.34375q-0.390625 1.125 -1.25 1.71875q-0.84375 0.578125 -2.125 0.578125q-2.03125 0 -3.0 -1.328125q-0.78125 -1.0625 -0.78125 -2.671875q0 -1.9375 1.015625 -3.03125q1.015625 -1.09375 2.5625 -1.09375q1.734375 0 2.734375 1.15625q1.0 1.140625 0.953125 3.5l-5.15625 0q0.03125 0.921875 0.5 1.4375q0.484375 0.5 1.1875 0.5q0.484375 0 0.8125 -0.265625q0.328125 -0.265625 0.5 -0.84375zm0.125 -2.09375q-0.03125 -0.890625 -0.46875 -1.34375q-0.4375 -0.46875 -1.0625 -0.46875q-0.671875 0 -1.125 0.484375q-0.4375 0.5 -0.421875 1.328125l3.078125 0zm3.5261078 4.5625l0 -10.734375l2.0625 0l0 10.734375l-2.0625 0zm3.5876007 -4.0q0 -1.03125 0.5 -1.984375q0.515625 -0.953125 1.4375 -1.453125q0.9375 -0.515625 2.078125 -0.515625q1.765625 0 2.890625 1.15625q1.125 1.140625 1.125 2.890625q0 1.765625 -1.140625 2.921875q-1.140625 1.15625 -2.859375 1.15625q-1.078125 0 -2.046875 -0.484375q-0.96875 -0.484375 -1.484375 -1.40625q-0.5 -0.9375 -0.5 -2.28125zm2.109375 0.109375q0 1.15625 0.546875 1.78125q0.5625 0.609375 1.359375 0.609375q0.8125 0 1.359375 -0.609375q0.546875 -0.625 0.546875 -1.796875q0 -1.140625 -0.546875 -1.75q-0.546875 -0.625 -1.359375 -0.625q-0.796875 0 -1.359375 0.625q-0.546875 0.609375 -0.546875 1.765625zm7.2651215 -3.890625l1.921875 0l0 1.140625q0.375 -0.578125 1.0 -0.9375q0.640625 -0.375 1.421875 -0.375q1.359375 0 2.296875 1.0625q0.953125 1.0625 0.953125 2.953125q0 1.953125 -0.953125 3.03125q-0.953125 1.078125 -2.3125 1.078125q-0.640625 0 -1.171875 -0.25q-0.515625 -0.265625 -1.09375 -0.875l0 3.90625l-2.0625 0l0 -10.734375zm2.03125 3.765625q0 1.3125 0.515625 1.9375q0.53125 0.625 1.28125 0.625q0.71875 0 1.1875 -0.578125q0.484375 -0.578125 0.484375 -1.890625q0 -1.21875 -0.5 -1.8125q-0.484375 -0.59375 -1.203125 -0.59375q-0.765625 0 -1.265625 0.59375q-0.5 0.578125 -0.5 1.71875zm6.8276215 -3.765625l1.890625 0l0 1.0625q1.03125 -1.234375 2.4375 -1.234375q0.734375 0 1.28125 0.3125q0.5625 0.296875 0.90625 0.921875q0.515625 -0.625 1.109375 -0.921875q0.59375 -0.3125 1.265625 -0.3125q0.859375 0 1.453125 0.34375q0.59375 0.34375 0.890625 1.03125q0.203125 0.484375 0.203125 1.609375l0 4.96875l-2.046875 0l0 -4.453125q0 -1.15625 -0.21875 -1.484375q-0.28125 -0.4375 -0.875 -0.4375q-0.4375 0 -0.828125 0.265625q-0.375 0.25 -0.546875 0.765625q-0.15625 0.515625 -0.15625 1.609375l0 3.734375l-2.0625 0l0 -4.265625q0 -1.125 -0.109375 -1.453125q-0.109375 -0.34375 -0.34375 -0.5q-0.234375 -0.15625 -0.625 -0.15625q-0.46875 0 -0.859375 0.265625q-0.375 0.25 -0.546875 0.734375q-0.15625 0.46875 -0.15625 1.59375l0 3.78125l-2.0625 0l0 -7.78125zm17.688004 5.3125l2.046875 0.34375q-0.390625 1.125 -1.25 1.71875q-0.84375 0.578125 -2.125 0.578125q-2.03125 0 -3.0 -1.328125q-0.78125 -1.0625 -0.78125 -2.671875q0 -1.9375 1.015625 -3.03125q1.015625 -1.09375 2.5625 -1.09375q1.734375 0 2.734375 1.15625q1.0 1.140625 0.953125 3.5l-5.15625 0q0.03125 0.921875 0.5 1.4375q0.484375 0.5 1.1875 0.5q0.484375 0 0.8125 -0.265625q0.328125 -0.265625 0.5 -0.84375zm0.125 -2.09375q-0.03125 -0.890625 -0.46875 -1.34375q-0.4375 -0.46875 -1.0625 -0.46875q-0.671875 0 -1.125 0.484375q-0.4375 0.5 -0.421875 1.328125l3.078125 0zm10.604233 4.5625l-2.0625 0l0 -3.96875q0 -1.265625 -0.140625 -1.625q-0.125 -0.375 -0.421875 -0.578125q-0.296875 -0.203125 -0.71875 -0.203125q-0.53125 0 -0.953125 0.296875q-0.421875 0.28125 -0.578125 0.765625q-0.15625 0.484375 -0.15625 1.796875l0 3.515625l-2.0625 0l0 -7.78125l1.90625 0l0 1.140625q1.015625 -1.3125 2.5625 -1.3125q0.6875 0 1.25 0.25q0.5625 0.234375 0.84375 0.625q0.296875 0.375 0.40625 0.859375q0.125 0.484375 0.125 1.390625l0 4.828125zm5.4369965 -7.78125l0 1.640625l-1.40625 0l0 3.140625q0 0.953125 0.03125 1.109375q0.046875 0.15625 0.1875 0.265625q0.15625 0.09375 0.359375 0.09375q0.28125 0 0.828125 -0.203125l0.171875 1.609375q-0.71875 0.296875 -1.625 0.296875q-0.5625 0 -1.015625 -0.1875q-0.4375 -0.1875 -0.65625 -0.484375q-0.203125 -0.296875 -0.28125 -0.796875q-0.0625 -0.359375 -0.0625 -1.453125l0 -3.390625l-0.9375 0l0 -1.640625l0.9375 0l0 -1.546875l2.0625 -1.203125l0 2.75l1.40625 0z" fill-rule="nonzero"></path><path fill="#3d85c6" d="m520.50385 425.15485l123.1181 0l0 82.39371l-123.1181 0z" fill-rule="nonzero"></path><path stroke="#000000" stroke-width="2.0" stroke-linejoin="round" stroke-linecap="butt" d="m520.50385 425.15485l123.1181 0l0 82.39371l-123.1181 0z" fill-rule="nonzero"></path><path fill="#000000" d="m530.63245 471.18765l0 -10.734375l3.484375 0q1.96875 0 2.578125 0.15625q0.921875 0.25 1.53125 1.0625q0.625 0.796875 0.625 2.078125q0 0.984375 -0.359375 1.671875q-0.359375 0.671875 -0.90625 1.0625q-0.546875 0.375 -1.125 0.5q-0.78125 0.15625 -2.25 0.15625l-1.40625 0l0 4.046875l-2.171875 0zm2.171875 -8.921875l0 3.046875l1.1875 0q1.28125 0 1.703125 -0.171875q0.4375 -0.171875 0.671875 -0.515625q0.25 -0.359375 0.25 -0.84375q0 -0.578125 -0.34375 -0.953125q-0.34375 -0.390625 -0.875 -0.484375q-0.375 -0.078125 -1.546875 -0.078125l-1.046875 0zm9.556885 8.921875l-2.0625 0l0 -7.78125l1.921875 0l0 1.109375q0.484375 -0.78125 0.875 -1.03125q0.390625 -0.25 0.890625 -0.25q0.703125 0 1.359375 0.390625l-0.640625 1.796875q-0.515625 -0.34375 -0.96875 -0.34375q-0.4375 0 -0.734375 0.25q-0.296875 0.234375 -0.46875 0.859375q-0.171875 0.609375 -0.171875 2.59375l0 2.40625zm8.234863 -2.46875l2.046875 0.34375q-0.390625 1.125 -1.25 1.71875q-0.84375 0.578125 -2.125 0.578125q-2.03125 0 -3.0 -1.328125q-0.78125 -1.0625 -0.78125 -2.671875q0 -1.9375 1.015625 -3.03125q1.015625 -1.09375 2.5625 -1.09375q1.734375 0 2.734375 1.15625q1.0 1.140625 0.953125 3.5l-5.15625 0q0.03125 0.921875 0.5 1.4375q0.484375 0.5 1.1875 0.5q0.484375 0 0.8125 -0.265625q0.328125 -0.265625 0.5 -0.84375zm0.125 -2.09375q-0.03125 -0.890625 -0.46875 -1.34375q-0.4375 -0.46875 -1.0625 -0.46875q-0.671875 0 -1.125 0.484375q-0.4375 0.5 -0.421875 1.328125l3.078125 0zm7.6137085 4.5625l0 -10.734375l3.484375 0q1.96875 0 2.578125 0.15625q0.921875 0.25 1.53125 1.0625q0.625 0.796875 0.625 2.078125q0 0.984375 -0.359375 1.671875q-0.359375 0.671875 -0.90625 1.0625q-0.546875 0.375 -1.125 0.5q-0.78125 0.15625 -2.25 0.15625l-1.40625 0l0 4.046875l-2.171875 0zm2.171875 -8.921875l0 3.046875l1.1875 0q1.28125 0 1.703125 -0.171875q0.4375 -0.171875 0.671875 -0.515625q0.25 -0.359375 0.25 -0.84375q0 -0.578125 -0.34375 -0.953125q-0.34375 -0.390625 -0.875 -0.484375q-0.375 -0.078125 -1.546875 -0.078125l-1.046875 0zm9.556885 8.921875l-2.0625 0l0 -7.78125l1.921875 0l0 1.109375q0.484375 -0.78125 0.875 -1.03125q0.390625 -0.25 0.890625 -0.25q0.703125 0 1.359375 0.390625l-0.640625 1.796875q-0.515625 -0.34375 -0.96875 -0.34375q-0.4375 0 -0.734375 0.25q-0.296875 0.234375 -0.46875 0.859375q-0.171875 0.609375 -0.171875 2.59375l0 2.40625zm3.2504883 -4.0q0 -1.03125 0.5 -1.984375q0.515625 -0.953125 1.4375 -1.453125q0.9375 -0.515625 2.078125 -0.515625q1.765625 0 2.890625 1.15625q1.125 1.140625 1.125 2.890625q0 1.765625 -1.140625 2.921875q-1.140625 1.15625 -2.859375 1.15625q-1.078125 0 -2.046875 -0.484375q-0.96875 -0.484375 -1.484375 -1.40625q-0.5 -0.9375 -0.5 -2.28125zm2.109375 0.109375q0 1.15625 0.546875 1.78125q0.5625 0.609375 1.359375 0.609375q0.8125 0 1.359375 -0.609375q0.546875 -0.625 0.546875 -1.796875q0 -1.140625 -0.546875 -1.75q-0.546875 -0.625 -1.359375 -0.625q-0.796875 0 -1.359375 0.625q-0.546875 0.609375 -0.546875 1.765625zm14.452637 3.890625l-1.90625 0l0 -1.140625q-0.46875 0.671875 -1.125 1.0q-0.640625 0.3125 -1.296875 0.3125q-1.34375 0 -2.3125 -1.078125q-0.953125 -1.078125 -0.953125 -3.015625q0 -1.96875 0.921875 -3.0q0.9375 -1.03125 2.359375 -1.03125q1.3125 0 2.265625 1.078125l0 -3.859375l2.046875 0l0 10.734375zm-5.484375 -4.0625q0 1.25 0.34375 1.8125q0.5 0.796875 1.390625 0.796875q0.703125 0 1.203125 -0.59375q0.5 -0.609375 0.5 -1.8125q0 -1.34375 -0.484375 -1.921875q-0.484375 -0.59375 -1.234375 -0.59375q-0.734375 0 -1.234375 0.578125q-0.484375 0.578125 -0.484375 1.734375zm12.436951 4.0625l0 -1.171875q-0.4375 0.625 -1.125 0.984375q-0.6875 0.359375 -1.453125 0.359375q-0.796875 0 -1.421875 -0.34375q-0.609375 -0.34375 -0.890625 -0.96875q-0.28125 -0.625 -0.28125 -1.71875l0 -4.921875l2.0625 0l0 3.578125q0 1.640625 0.109375 2.015625q0.109375 0.359375 0.40625 0.578125q0.3125 0.21875 0.765625 0.21875q0.53125 0 0.953125 -0.28125q0.421875 -0.296875 0.5625 -0.71875q0.15625 -0.4375 0.15625 -2.109375l0 -3.28125l2.0625 0l0 7.78125l-1.90625 0zm10.608887 -5.484375l-2.03125 0.375q-0.09375 -0.609375 -0.46875 -0.90625q-0.359375 -0.3125 -0.9375 -0.3125q-0.765625 0 -1.234375 0.53125q-0.453125 0.515625 -0.453125 1.765625q0 1.390625 0.46875 1.96875q0.46875 0.5625 1.25 0.5625q0.59375 0 0.953125 -0.328125q0.375 -0.34375 0.53125 -1.15625l2.03125 0.34375q-0.328125 1.390625 -1.21875 2.109375q-0.890625 0.703125 -2.390625 0.703125q-1.703125 0 -2.71875 -1.078125q-1.015625 -1.078125 -1.015625 -2.96875q0 -1.9375 1.015625 -3.0q1.015625 -1.078125 2.75 -1.078125q1.421875 0 2.265625 0.609375q0.84375 0.609375 1.203125 1.859375zm4.932373 -2.296875l0 1.640625l-1.40625 0l0 3.140625q0 0.953125 0.03125 1.109375q0.046875 0.15625 0.1875 0.265625q0.15625 0.09375 0.359375 0.09375q0.28125 0 0.828125 -0.203125l0.171875 1.609375q-0.71875 0.296875 -1.625 0.296875q-0.5625 0 -1.015625 -0.1875q-0.4375 -0.1875 -0.65625 -0.484375q-0.203125 -0.296875 -0.28125 -0.796875q-0.0625 -0.359375 -0.0625 -1.453125l0 -3.390625l-0.9375 0l0 -1.640625l0.9375 0l0 -1.546875l2.0625 -1.203125l0 2.75l1.40625 0zm1.3181152 -1.046875l0 -1.90625l2.0625 0l0 1.90625l-2.0625 0zm0 8.828125l0 -7.78125l2.0625 0l0 7.78125l-2.0625 0zm3.5876465 -4.0q0 -1.03125 0.5 -1.984375q0.515625 -0.953125 1.4375 -1.453125q0.9375 -0.515625 2.078125 -0.515625q1.765625 0 2.890625 1.15625q1.125 1.140625 1.125 2.890625q0 1.765625 -1.140625 2.921875q-1.140625 1.15625 -2.859375 1.15625q-1.078125 0 -2.046875 -0.484375q-0.96875 -0.484375 -1.484375 -1.40625q-0.5 -0.9375 -0.5 -2.28125zm2.109375 0.109375q0 1.15625 0.546875 1.78125q0.5625 0.609375 1.359375 0.609375q0.8125 0 1.359375 -0.609375q0.546875 -0.625 0.546875 -1.796875q0 -1.140625 -0.546875 -1.75q-0.546875 -0.625 -1.359375 -0.625q-0.796875 0 -1.359375 0.625q-0.546875 0.609375 -0.546875 1.765625zm14.405701 3.890625l-2.0625 0l0 -3.96875q0 -1.265625 -0.140625 -1.625q-0.125 -0.375 -0.421875 -0.578125q-0.296875 -0.203125 -0.71875 -0.203125q-0.53125 0 -0.953125 0.296875q-0.421875 0.28125 -0.578125 0.765625q-0.15625 0.484375 -0.15625 1.796875l0 3.515625l-2.0625 0l0 -7.78125l1.90625 0l0 1.140625q1.015625 -1.3125 2.5625 -1.3125q0.6875 0 1.25 0.25q0.5625 0.234375 0.84375 0.625q0.296875 0.375 0.40625 0.859375q0.125 0.484375 0.125 1.390625l0 4.828125z" fill-rule="nonzero"></path><path fill="#e06666" d="m316.3779 425.15485l123.1181 0l0 82.39371l-123.1181 0z" fill-rule="nonzero"></path><path stroke="#000000" stroke-width="2.0" stroke-linejoin="round" stroke-linecap="butt" d="m316.3779 425.15485l123.1181 0l0 82.39371l-123.1181 0z" fill-rule="nonzero"></path><path fill="#000000" d="m366.38483 471.18765l0 -8.921875l-3.1875 0l0 -1.8125l8.53125 0l0 1.8125l-3.1875 0l0 8.921875l-2.15625 0zm11.015106 -2.46875l2.046875 0.34375q-0.390625 1.125 -1.25 1.71875q-0.84375 0.578125 -2.125 0.578125q-2.03125 0 -3.0 -1.328125q-0.78125 -1.0625 -0.78125 -2.671875q0 -1.9375 1.015625 -3.03125q1.015625 -1.09375 2.5625 -1.09375q1.734375 0 2.734375 1.15625q1.0 1.140625 0.953125 3.5l-5.15625 0q0.03125 0.921875 0.5 1.4375q0.484375 0.5 1.1875 0.5q0.484375 0 0.8125 -0.265625q0.328125 -0.265625 0.5 -0.84375zm0.125 -2.09375q-0.03125 -0.890625 -0.46875 -1.34375q-0.4375 -0.46875 -1.0625 -0.46875q-0.671875 0 -1.125 0.484375q-0.4375 0.5 -0.421875 1.328125l3.078125 0zm2.807373 2.34375l2.0625 -0.3125q0.125 0.59375 0.53125 0.90625q0.40625 0.3125 1.125 0.3125q0.796875 0 1.203125 -0.296875q0.265625 -0.203125 0.265625 -0.546875q0 -0.234375 -0.140625 -0.390625q-0.15625 -0.140625 -0.6875 -0.265625q-2.484375 -0.546875 -3.15625 -1.0q-0.921875 -0.640625 -0.921875 -1.75q0 -1.015625 0.796875 -1.703125q0.796875 -0.6875 2.46875 -0.6875q1.609375 0 2.375 0.515625q0.78125 0.515625 1.078125 1.546875l-1.953125 0.359375q-0.125 -0.453125 -0.46875 -0.6875q-0.34375 -0.25 -0.984375 -0.25q-0.8125 0 -1.171875 0.21875q-0.234375 0.15625 -0.234375 0.421875q0 0.21875 0.203125 0.375q0.28125 0.203125 1.921875 0.578125q1.65625 0.375 2.296875 0.90625q0.65625 0.5625 0.65625 1.53125q0 1.078125 -0.90625 1.84375q-0.890625 0.765625 -2.640625 0.765625q-1.59375 0 -2.515625 -0.640625q-0.921875 -0.640625 -1.203125 -1.75zm12.432343 -5.5625l0 1.640625l-1.40625 0l0 3.140625q0 0.953125 0.03125 1.109375q0.046875 0.15625 0.1875 0.265625q0.15625 0.09375 0.359375 0.09375q0.28125 0 0.828125 -0.203125l0.171875 1.609375q-0.71875 0.296875 -1.625 0.296875q-0.5625 0 -1.015625 -0.1875q-0.4375 -0.1875 -0.65625 -0.484375q-0.203125 -0.296875 -0.28125 -0.796875q-0.0625 -0.359375 -0.0625 -1.453125l0 -3.390625l-0.9375 0l0 -1.640625l0.9375 0l0 -1.546875l2.0625 -1.203125l0 2.75l1.40625 0z" fill-rule="nonzero"></path><path fill="#cfe2f3" d="m242.85039 460.2966l53.937027 0l0 -6.0551453l12.1102295 12.11026l-12.1102295 12.1102295l0 -6.0551147l-53.937027 0z" fill-rule="nonzero"></path><path stroke="#000000" stroke-width="2.0" stroke-linejoin="round" stroke-linecap="butt" d="m242.85039 460.2966l53.937027 0l0 -6.0551453l12.1102295 12.11026l-12.1102295 12.1102295l0 -6.0551147l-53.937027 0z" fill-rule="nonzero"></path><path fill="#cfe2f3" d="m446.97638 460.2966l53.93701 0l0 -6.0551453l12.1102295 12.11026l-12.1102295 12.1102295l0 -6.0551147l-53.93701 0z" fill-rule="nonzero"></path><path stroke="#000000" stroke-width="2.0" stroke-linejoin="round" stroke-linecap="butt" d="m446.97638 460.2966l53.93701 0l0 -6.0551453l12.1102295 12.11026l-12.1102295 12.1102295l0 -6.0551147l-53.93701 0z" fill-rule="nonzero"></path><path fill="#3d85c6" d="m724.6298 425.15485l123.1181 0l0 82.39371l-123.1181 0z" fill-rule="nonzero"></path><path stroke="#000000" stroke-width="2.0" stroke-linejoin="round" stroke-linecap="butt" d="m724.6298 425.15485l123.1181 0l0 82.39371l-123.1181 0z" fill-rule="nonzero"></path><path fill="#000000" d="m748.6096 471.18765l0 -10.734375l3.484375 0q1.96875 0 2.578125 0.15625q0.921875 0.25 1.53125 1.0625q0.625 0.796875 0.625 2.078125q0 0.984375 -0.359375 1.671875q-0.359375 0.671875 -0.90625 1.0625q-0.546875 0.375 -1.125 0.5q-0.78125 0.15625 -2.25 0.15625l-1.40625 0l0 4.046875l-2.171875 0zm2.171875 -8.921875l0 3.046875l1.1875 0q1.28125 0 1.703125 -0.171875q0.4375 -0.171875 0.671875 -0.515625q0.25 -0.359375 0.25 -0.84375q0 -0.578125 -0.34375 -0.953125q-0.34375 -0.390625 -0.875 -0.484375q-0.375 -0.078125 -1.546875 -0.078125l-1.046875 0zm9.556824 8.921875l-2.0625 0l0 -7.78125l1.921875 0l0 1.109375q0.484375 -0.78125 0.875 -1.03125q0.390625 -0.25 0.890625 -0.25q0.703125 0 1.359375 0.390625l-0.640625 1.796875q-0.515625 -0.34375 -0.96875 -0.34375q-0.4375 0 -0.734375 0.25q-0.296875 0.234375 -0.46875 0.859375q-0.171875 0.609375 -0.171875 2.59375l0 2.40625zm3.2505493 -4.0q0 -1.03125 0.5 -1.984375q0.515625 -0.953125 1.4375 -1.453125q0.9375 -0.515625 2.078125 -0.515625q1.765625 0 2.890625 1.15625q1.125 1.140625 1.125 2.890625q0 1.765625 -1.140625 2.921875q-1.140625 1.15625 -2.859375 1.15625q-1.078125 0 -2.046875 -0.484375q-0.96875 -0.484375 -1.484375 -1.40625q-0.5 -0.9375 -0.5 -2.28125zm2.109375 0.109375q0 1.15625 0.546875 1.78125q0.5625 0.609375 1.359375 0.609375q0.8125 0 1.359375 -0.609375q0.546875 -0.625 0.546875 -1.796875q0 -1.140625 -0.546875 -1.75q-0.546875 -0.625 -1.359375 -0.625q-0.796875 0 -1.359375 0.625q-0.546875 0.609375 -0.546875 1.765625zm14.452576 3.890625l-1.90625 0l0 -1.140625q-0.46875 0.671875 -1.125 1.0q-0.640625 0.3125 -1.296875 0.3125q-1.34375 0 -2.3125 -1.078125q-0.953125 -1.078125 -0.953125 -3.015625q0 -1.96875 0.921875 -3.0q0.9375 -1.03125 2.359375 -1.03125q1.3125 0 2.265625 1.078125l0 -3.859375l2.046875 0l0 10.734375zm-5.484375 -4.0625q0 1.25 0.34375 1.8125q0.5 0.796875 1.390625 0.796875q0.703125 0 1.203125 -0.59375q0.5 -0.609375 0.5 -1.8125q0 -1.34375 -0.484375 -1.921875q-0.484375 -0.59375 -1.234375 -0.59375q-0.734375 0 -1.234375 0.578125q-0.484375 0.578125 -0.484375 1.734375zm12.437012 4.0625l0 -1.171875q-0.4375 0.625 -1.125 0.984375q-0.6875 0.359375 -1.453125 0.359375q-0.796875 0 -1.421875 -0.34375q-0.609375 -0.34375 -0.890625 -0.96875q-0.28125 -0.625 -0.28125 -1.71875l0 -4.921875l2.0625 0l0 3.578125q0 1.640625 0.109375 2.015625q0.109375 0.359375 0.40625 0.578125q0.3125 0.21875 0.765625 0.21875q0.53125 0 0.953125 -0.28125q0.421875 -0.296875 0.5625 -0.71875q0.15625 -0.4375 0.15625 -2.109375l0 -3.28125l2.0625 0l0 7.78125l-1.90625 0zm10.608887 -5.484375l-2.03125 0.375q-0.09375 -0.609375 -0.46875 -0.90625q-0.359375 -0.3125 -0.9375 -0.3125q-0.765625 0 -1.234375 0.53125q-0.453125 0.515625 -0.453125 1.765625q0 1.390625 0.46875 1.96875q0.46875 0.5625 1.25 0.5625q0.59375 0 0.953125 -0.328125q0.375 -0.34375 0.53125 -1.15625l2.03125 0.34375q-0.328125 1.390625 -1.21875 2.109375q-0.890625 0.703125 -2.390625 0.703125q-1.703125 0 -2.71875 -1.078125q-1.015625 -1.078125 -1.015625 -2.96875q0 -1.9375 1.015625 -3.0q1.015625 -1.078125 2.75 -1.078125q1.421875 0 2.265625 0.609375q0.84375 0.609375 1.203125 1.859375zm4.932373 -2.296875l0 1.640625l-1.40625 0l0 3.140625q0 0.953125 0.03125 1.109375q0.046875 0.15625 0.1875 0.265625q0.15625 0.09375 0.359375 0.09375q0.28125 0 0.828125 -0.203125l0.171875 1.609375q-0.71875 0.296875 -1.625 0.296875q-0.5625 0 -1.015625 -0.1875q-0.4375 -0.1875 -0.65625 -0.484375q-0.203125 -0.296875 -0.28125 -0.796875q-0.0625 -0.359375 -0.0625 -1.453125l0 -3.390625l-0.9375 0l0 -1.640625l0.9375 0l0 -1.546875l2.0625 -1.203125l0 2.75l1.40625 0zm1.3181152 -1.046875l0 -1.90625l2.0625 0l0 1.90625l-2.0625 0zm0 8.828125l0 -7.78125l2.0625 0l0 7.78125l-2.0625 0zm3.5875854 -4.0q0 -1.03125 0.5 -1.984375q0.515625 -0.953125 1.4375 -1.453125q0.9375 -0.515625 2.078125 -0.515625q1.765625 0 2.890625 1.15625q1.125 1.140625 1.125 2.890625q0 1.765625 -1.140625 2.921875q-1.140625 1.15625 -2.859375 1.15625q-1.078125 0 -2.046875 -0.484375q-0.96875 -0.484375 -1.484375 -1.40625q-0.5 -0.9375 -0.5 -2.28125zm2.109375 0.109375q0 1.15625 0.546875 1.78125q0.5625 0.609375 1.359375 0.609375q0.8125 0 1.359375 -0.609375q0.546875 -0.625 0.546875 -1.796875q0 -1.140625 -0.546875 -1.75q-0.546875 -0.625 -1.359375 -0.625q-0.796875 0 -1.359375 0.625q-0.546875 0.609375 -0.546875 1.765625zm14.405762 3.890625l-2.0625 0l0 -3.96875q0 -1.265625 -0.140625 -1.625q-0.125 -0.375 -0.421875 -0.578125q-0.296875 -0.203125 -0.71875 -0.203125q-0.53125 0 -0.953125 0.296875q-0.421875 0.28125 -0.578125 0.765625q-0.15625 0.484375 -0.15625 1.796875l0 3.515625l-2.0625 0l0 -7.78125l1.90625 0l0 1.140625q1.015625 -1.3125 2.5625 -1.3125q0.6875 0 1.25 0.25q0.5625 0.234375 0.84375 0.625q0.296875 0.375 0.40625 0.859375q0.125 0.484375 0.125 1.390625l0 4.828125z" fill-rule="nonzero"></path><path fill="#cfe2f3" d="m651.10236 460.2966l53.93701 0l0 -6.0551453l12.1102295 12.11026l-12.1102295 12.1102295l0 -6.0551147l-53.93701 0z" fill-rule="nonzero"></path><path stroke="#000000" stroke-width="2.0" stroke-linejoin="round" stroke-linecap="butt" d="m651.10236 460.2966l53.93701 0l0 -6.0551453l12.1102295 12.11026l-12.1102295 12.1102295l0 -6.0551147l-53.93701 0z" fill-rule="nonzero"></path><path fill="#cfe2f3" d="m593.51184 336.24805l0 24.625977l0 0c0 10.578217 -8.575378 19.153534 -19.153564 19.153534l-183.24411 0c-5.079834 0 -9.951599 -2.0179443 -13.543579 -5.609955c-3.59198 -3.59198 -5.609955 -8.463745 -5.609955 -13.543579l0 -2.7362366l-5.4724426 0l10.944885 -10.944885l10.944885 10.944885l-5.4724426 0l0 2.7362366l0 0c0 4.5335083 3.6751404 8.208649 8.208649 8.208649l183.24411 0l0 0c4.5335083 0 8.208679 -3.6751404 8.208679 -8.208649l0 -24.625977z" fill-rule="nonzero"></path><path stroke="#000000" stroke-width="2.0" stroke-linejoin="round" stroke-linecap="butt" stroke-dasharray="16.0,6.0" d="m593.51184 336.24805l0 24.625977l0 0c0 10.578217 -8.575378 19.153534 -19.153564 19.153534l-183.24411 0c-5.079834 0 -9.951599 -2.0179443 -13.543579 -5.609955c-3.59198 -3.59198 -5.609955 -8.463745 -5.609955 -13.543579l0 -2.7362366l-5.4724426 0l10.944885 -10.944885l10.944885 10.944885l-5.4724426 0l0 2.7362366l0 0c0 4.5335083 3.6751404 8.208649 8.208649 8.208649l183.24411 0l0 0c4.5335083 0 8.208679 -3.6751404 8.208679 -8.208649l0 -24.625977z" fill-rule="nonzero"></path></g></svg>

